<svg xmlns="http://www.w3.org/2000/svg" xmlns:xlink="http://www.w3.org/1999/xlink" viewBox="0 0 875.6 215.6" xmlns:v="https://vecta.io/nano"><g fill="#828386"><path d="M390.7 157c-27.2 0-49.2-22.1-49.1-49.3s22.1-49.2 49.3-49.1S440 80.7 440 107.9c0 27.1-22 49.1-49.1 49.1h-.2m-29-49.1c-.3 16 12.4 29.1 28.4 29.4s29.1-12.4 29.4-28.4v-1.1c0-15.8-12.9-29.2-28.8-29.2-15.9.4-28.8 13.3-29 29.3M875.6 157l-21.8-21.9c5.4-8 8.3-17.5 8.3-27.2.2-27.3-21.8-49.5-49.1-49.7s-49.5 21.8-49.7 49.1 21.8 49.5 49.1 49.7c10.3.1 20.4-3.1 28.8-9l8.8 8.9 25.6.1zm-62.8-20.1c-16.1-.3-28.9-13.6-28.6-29.6.3-15.6 12.9-28.3 28.6-28.6 15.8 0 28.8 13.3 28.8 29.2 0 4.2-.9 8.4-2.7 12.2l-4.8-4.8-12.7 12.7 5.2 5.3c-4.3 2.4-9 3.6-13.8 3.6zM332.5 61.8h-37.1-20.9-37.1v20.9h37.1v71.5h20.9V82.7h37.1z"/><path d="M514.4 121.7c-11 1.5-22.1 1.8-33.2 1.1V157h-21V61.8h42.9c24 0 33.2 15 33.2 30.5 0 12.9-6 26-21.9 29.4m-33.1-43.6v28.6h16.2c10 0 18.2-2.3 18.2-14.4 0-12.4-8.3-14.2-18.2-14.2h-16.2zm130.6 43.6l26.6 35.3H613l-24-34.2h-10.2V157h-21V61.8h42.9c24 0 33.2 15 33.2 30.5-.1 12.9-6.1 26-22 29.4m-33.1-43.6v28.6H595c10 0 18.2-2.3 18.2-14.4 0-12.4-8.3-14.2-18.2-14.2h-16.2zM729.9 157l22.3-.3-38.5-95h-.1-25.2l-.2-.1v.1h0 0l-38.2 95 22.3.3 11.5-28.6h34.5l11.6 28.6zm-40.5-42.6L701 85.9l11.6 28.6h-23.2z"/></g><linearGradient id="A" gradientUnits="userSpaceOnUse" x1="8.78" y1="77.992" x2="208.2" y2="148.242"><stop offset="0" stop-color="#028cb2"/><stop offset=".03" stop-color="#0782b1"/><stop offset=".11" stop-color="#0f72b0"/><stop offset=".2" stop-color="#1468af"/><stop offset=".32" stop-color="#1665af"/><stop offset=".39" stop-color="#176793"/><stop offset=".51" stop-color="#186972"/><stop offset=".62" stop-color="#196b59"/><stop offset=".74" stop-color="#1a6c46"/><stop offset=".86" stop-color="#1a6d3c"/><stop offset="1" stop-color="#1a6d38"/></linearGradient><path d="M209.8 93.1c-2.3-3.7-6.6-5.7-10.9-5-8-26.9-27.3-49-52.9-60.5-.1-15.4-12.8-27.8-28.2-27.6C105.2.1 94.2 8.7 91 21c-30.6 5.7-56.5 26-69.4 54.3C8.7 76.4-1 87.9.1 100.9a23.53 23.53 0 0 0 13.5 19.4c1.7 26.8 14.7 51.5 35.8 68.1-.5 1.1-.8 2.2-1.1 3.3-2.4 10.5 4.1 20.9 14.5 23.3 8.3 1.9 17-1.8 21.3-9.2 25.4 6.5 52.3 2.3 74.4-11.8 5.9 6 15.5 6 21.4.1 5.1-5 6-12.8 2.2-18.8-.3-.5-.6-.9-1-1.4 13.9-16.8 21.5-37.9 21.4-59.7.1 21.6-8 42.5-22.5 58.5-5.9-5.9-15.5-6-21.4-.1-5 4.9-5.9 12.6-2.3 18.6-13.7 7.3-29.1 10.8-44.6 10-8.6-.3-17-1.9-25.1-4.8.2-10.7-8.3-19.5-19-19.7-3.5-.1-6.9.8-9.9 2.5-16.6-14.7-27-35.1-29-57.2 2.7-.6 5.2-1.6 7.5-3.1 11.1-6.9 14.5-21.6 7.5-32.6-1.9-3.1-4.6-5.7-7.7-7.7 10.5-22.9 30.2-40.3 54.3-47.8 1.6 15.4 15.3 26.5 30.6 24.9 11.9-1.2 21.6-9.8 24.4-21.4.1-.6.3-1.3.4-1.9 25.2 9.5 44.7 30 52.9 55.7-5.9 1.2-9.8 6.9-8.6 12.8 1.1 5.8 6.6 9.6 12.4 8.7.1 1.5.1 3 .1 4.6 0-1.5 0-3.1-.1-4.6a9.33 9.33 0 0 0 3.9-1.5c5-3.1 6.6-9.8 3.5-15h0z" fill="url(#A)"/><g fill="#1a6d38"><path d="M164.7 82.3c-1.8-.2-3.6-.2-5.4-.2h0c-15.6 0-30.5 6.2-41.5 17.2s-17.2 27.5-17.2 43v1.6l34.9-32.3-30.7 34.8h1.5c32.4 0 58.7-26.3 58.7-58.7 0-1.8-.1-3.6-.3-5.4h0z"/><path d="M62.1 104.2h0c-1.2 0-2.4 0-3.5.2 0 1.2-.2 2.2-.2 3.5h0c0 21.3 17.3 38.5 38.5 38.5h1l-20.2-22.8 22.9 20.2v-1c.1-21.2-17.1-38.5-38.3-38.6h-.2 0z"/></g><defs><path id="B" d="M209.8 93.1c-2.3-3.7-6.6-5.7-10.9-5-8-26.9-27.3-49-52.9-60.5-.1-15.4-12.8-27.8-28.2-27.6C105.2.1 94.2 8.7 91 21c-30.6 5.7-56.5 26-69.4 54.3C8.7 76.4-1 87.9.1 100.9a23.53 23.53 0 0 0 13.5 19.4c1.7 26.8 14.7 51.5 35.8 68.1-.5 1.1-.8 2.2-1.1 3.3-2.4 10.5 4.1 20.9 14.5 23.3 8.3 1.9 17-1.8 21.3-9.2 25.4 6.5 52.3 2.3 74.4-11.8 5.9 6 15.5 6 21.4.1 5.1-5 6-12.8 2.2-18.8-.3-.5-.6-.9-1-1.4 13.9-16.8 21.5-37.9 21.4-59.7.1 21.6-8 42.5-22.5 58.5-5.9-5.9-15.5-6-21.4-.1-5 4.9-5.9 12.6-2.3 18.6-13.7 7.3-29.1 10.8-44.6 10-8.6-.3-17-1.9-25.1-4.8.2-10.7-8.3-19.5-19-19.7-3.5-.1-6.9.8-9.9 2.5-16.6-14.7-27-35.1-29-57.2 2.7-.6 5.2-1.6 7.5-3.1 11.1-6.9 14.5-21.6 7.5-32.6-1.9-3.1-4.6-5.7-7.7-7.7 10.5-22.9 30.2-40.3 54.3-47.8 1.6 15.4 15.3 26.5 30.6 24.9 11.9-1.2 21.6-9.8 24.4-21.4.1-.6.3-1.3.4-1.9 25.2 9.5 44.7 30 52.9 55.7-5.9 1.2-9.8 6.9-8.6 12.8 1.1 5.8 6.6 9.6 12.4 8.7.1 1.5.1 3 .1 4.6 0-1.5 0-3.1-.1-4.6a9.33 9.33 0 0 0 3.9-1.5c5-3.1 6.6-9.8 3.5-15h0z"/><path id="C" d="M59.7 129.5c1.2 0 2.1 1 2.1 2.2s-1 2.1-2.2 2.1-2.1-1-2.1-2.1a2.22 2.22 0 0 1 2.2-2.2zm0 3.5c.8 0 1.4-.6 1.4-1.4s-.6-1.4-1.4-1.4-1.4.6-1.4 1.4.6 1.4 1.4 1.4z"/><path id="D" d="M102.9 99.7c1.2 0 2.1 1 2.1 2.2s-1 2.1-2.2 2.1-2.1-1-2.1-2.1c.1-1.2 1-2.2 2.2-2.2h0zm0 3.5c.8 0 1.4-.6 1.4-1.4s-.6-1.4-1.4-1.4-1.4.6-1.4 1.4c.1.8.7 1.4 1.4 1.4h0z"/><path id="E" d="M147.8 92.7c1.2 0 2.1 1 2.1 2.2s-1 2.2-2.2 2.1c-1.2 0-2.1-1-2.1-2.2 0-1.1 1-2.1 2.2-2.1zm0 3.5c.8 0 1.4-.6 1.4-1.4s-.6-1.4-1.4-1.4-1.4.6-1.4 1.4h0c0 .8.6 1.4 1.4 1.4h0z"/><path id="F" d="M82.1 120.7c1.2 0 2.1 1 2.1 2.2s-1 2.1-2.2 2.1-2.1-1-2.1-2.1a2.22 2.22 0 0 1 2.2-2.2h0zm0 3.6c.8 0 1.4-.6 1.4-1.4s-.6-1.4-1.4-1.4-1.4.6-1.4 1.4h0c0 .7.6 1.4 1.4 1.4h0z"/><path id="G" d="M153.4 120.7c1.2 0 2.1 1 2.1 2.2s-1 2.1-2.2 2.1-2.1-1-2.1-2.1a2.22 2.22 0 0 1 2.2-2.2zm0 3.5c.8 0 1.4-.6 1.4-1.4s-.6-1.4-1.4-1.4-1.4.6-1.4 1.4.6 1.4 1.4 1.4h0z"/><path id="H" d="M118.4-54c1.2 0 2.1 1 2.1 2.2s-1 2.1-2.2 2.1-2.1-1-2.1-2.1c0-1.3 1-2.2 2.2-2.2zm0 3.5c.8 0 1.4-.6 1.4-1.4s-.6-1.4-1.4-1.4-1.4.6-1.4 1.4h0c0 .8.6 1.4 1.4 1.4z"/><path id="I" d="M61.3-52.3c1.2 0 2.1 1 2.1 2.2s-1 2.1-2.2 2.1-2.1-1-2.1-2.1 1-2.2 2.2-2.2h0zm0 3.5c.8 0 1.4-.6 1.4-1.4s-.6-1.4-1.4-1.4-1.4.6-1.4 1.4.6 1.4 1.4 1.4z"/><path id="J" d="M13.2-57.5h7.7v7h8.3v.8h-9.1v-7H14v7H5.5v-.8h7.7z"/><path id="K" d="M63.1-50.5h15v7h16.2v7h14.3v7h13.8v-7h17.5v.8h-16.7v7h-15.4v-7H93.5v-7H77.3v-7H63.1z"/><path id="L" d="M-15.9-43.5h28v7h21.8v7h21v-7h17.9v.8H55.7v7H33.2v-7H11.4v-7h-27.3z"/><path id="M" d="M162 16.8c1.2 0 2.1 1 2.1 2.2s-1 2.1-2.2 2.1-2.1-1-2.1-2.1c.1-1.3 1-2.2 2.2-2.2zm0 3.5c.8 0 1.4-.6 1.4-1.4s-.6-1.4-1.4-1.4-1.4.6-1.4 1.4c.1.8.7 1.4 1.4 1.4z"/><path id="N" d="M16.4 9.8c1.2 0 2.1 1 2.1 2.2s-1 2.1-2.2 2.1-2.1-1-2.1-2.1c0-1.3 1-2.2 2.2-2.2zm0 3.5c.8 0 1.4-.6 1.4-1.4s-.6-1.4-1.4-1.4-1.4.6-1.4 1.4.6 1.4 1.4 1.4z"/><path id="O" d="M22-11.2c1.2 0 2.1 1 2.1 2.2s-1 2.1-2.2 2.1-2.1-1-2.1-2.2 1-2.1 2.2-2.1zm0 3.5c.8 0 1.4-.6 1.3-1.4s-.6-1.4-1.4-1.3c-.7 0-1.3.6-1.3 1.3 0 .8.6 1.4 1.4 1.4z"/><path id="P" d="M10.8-18.2c1.2 0 2.1 1 2.1 2.2s-1 2.1-2.2 2.1-2.1-1-2.1-2.2c.1-1.2 1-2.1 2.2-2.1h0zm0 3.5c.8 0 1.4-.6 1.4-1.4s-.6-1.4-1.4-1.4-1.4.6-1.4 1.4h0c.1.8.7 1.4 1.4 1.4z"/><path id="Q" d="M36 36.7c1.2 0 2.1 1 2.1 2.2s-1 2.1-2.2 2.1-2.1-1-2.1-2.2c.1-1.1 1.1-2.1 2.2-2.1zm0 3.5c.8 0 1.4-.6 1.4-1.4s-.6-1.4-1.4-1.4-1.4.6-1.4 1.4c.1.8.7 1.4 1.4 1.4z"/><path id="R" d="M59.7 45.5a2.22 2.22 0 0 1 2.2 2.2 2.22 2.22 0 0 1-2.2 2.2 2.22 2.22 0 0 1-2.2-2.2h0c0-1.3 1-2.2 2.2-2.2zm0 3.5c.8 0 1.4-.6 1.4-1.4s-.6-1.4-1.4-1.4-1.4.6-1.4 1.4h0c0 .8.6 1.4 1.4 1.4z"/><path id="S" d="M147.8 64.7c1.2 0 2.1 1 2.1 2.2s-1 2.1-2.2 2.1-2.1-1-2.1-2.1a2.22 2.22 0 0 1 2.2-2.2zm0 3.5c.8 0 1.4-.6 1.4-1.3 0-.8-.6-1.4-1.4-1.4s-1.4.6-1.4 1.4c0 .7.6 1.3 1.4 1.3h0z"/><path id="T" d="M111.9 71.7c1.2 0 2.2.9 2.2 2.1s-.9 2.2-2.1 2.2-2.2-.9-2.2-2.1v-.1c0-1.1.9-2.1 2.1-2.1zm0 3.5c.7 0 1.4-.6 1.4-1.3 0-.8-.6-1.4-1.4-1.4s-1.4.6-1.4 1.4.6 1.3 1.4 1.3z"/><path id="U" d="M20 112.8c0 1.2-.9 2.2-2.1 2.2s-2.2-.9-2.2-2.1.9-2.2 2.1-2.2 2.2 1 2.2 2.1zm-3.5 0c0 .8.6 1.4 1.4 1.4s1.4-.6 1.4-1.4-.6-1.4-1.4-1.4c-.8.1-1.4.7-1.4 1.4z"/><path id="V" d="M32.8 193.6c0 1.2-1 2.1-2.2 2.1s-2.1-1-2.1-2.2 1-2.1 2.1-2.1c1.3.1 2.2 1 2.2 2.2zm-3.5 0c0 .8.6 1.4 1.4 1.4s1.4-.6 1.4-1.4-.6-1.4-1.4-1.4c-.8.1-1.4.7-1.4 1.4z"/><path id="W" d="M61 183.9c0 1.2-1 2.1-2.2 2.1s-2.2-1-2.1-2.2c0-1.2 1-2.1 2.2-2.1 1.1.1 2.1 1 2.1 2.2zm-3.5 0c0 .8.6 1.4 1.4 1.4s1.4-.6 1.4-1.4-.6-1.4-1.4-1.4h0c-.8.1-1.4.7-1.4 1.4z"/><path id="X" d="M45.1 236.8c0 1.2-1 2.1-2.2 2.1s-2.1-1-2.1-2.2 1-2.1 2.1-2.1c1.2.1 2.2 1 2.2 2.2zm-3.5 0c0 .8.6 1.4 1.4 1.4s1.4-.6 1.4-1.4-.6-1.4-1.4-1.4c-.8.1-1.4.7-1.4 1.4z"/><path id="Y" d="M45.1 173.9c0 1.2-1 2.1-2.2 2.1s-2.1-1-2.1-2.2 1-2.1 2.2-2.1c1.1.1 2.1 1 2.1 2.2zm-3.5 0c0 .8.6 1.4 1.4 1.4s1.4-.6 1.4-1.4-.6-1.4-1.4-1.4c-.8.1-1.4.7-1.4 1.4z"/><path id="Z" d="M59.1 223.5c0 1.2-1 2.1-2.2 2.1s-2.1-1-2.1-2.2 1-2.1 2.1-2.1a2.22 2.22 0 0 1 2.2 2.2h0zm-3.5 0c0 .8.6 1.4 1.4 1.4s1.4-.6 1.4-1.4-.6-1.4-1.4-1.4h0c-.8 0-1.4.6-1.4 1.4z"/><path id="a" d="M45.1 267.2c0 1.2-1 2.1-2.2 2.1s-2.2-1-2.1-2.2c0-1.2 1-2.1 2.2-2.1 1.1.1 2.1 1 2.1 2.2zm-3.5 0c0 .8.6 1.4 1.4 1.4s1.4-.6 1.4-1.4-.6-1.4-1.4-1.4h0c-.8 0-1.4.7-1.4 1.4z"/><path id="b" d="M24.1 249.1c0 1.2-1 2.1-2.2 2.1s-2.1-1-2.1-2.2 1-2.1 2.1-2.1a2.22 2.22 0 0 1 2.2 2.2zm-3.5 0c0 .8.6 1.4 1.4 1.4s1.4-.6 1.4-1.4-.6-1.4-1.4-1.4-1.4.6-1.4 1.4z"/><path id="c" d="M24.1 287.3c0 1.2-1 2.1-2.2 2.1s-2.1-1-2.1-2.2 1-2.1 2.1-2.1c1.2.1 2.2 1 2.2 2.2zm-3.5 0c0 .8.6 1.4 1.4 1.4s1.4-.6 1.4-1.4-.6-1.4-1.4-1.4-1.4.7-1.4 1.4z"/><path id="d" d="M202.3 147.2v7.6h-7v8.3h-.8v-9h7V148h-7v-8.6h.8v7.8z"/><path id="e" d="M195.3 197v15h-7v16.2h-7v14.4h-7v13.7h7v17.6h-.8v-16.8h-7v-15.3h7v-14.4h7v-16.2h7V197z"/><path id="f" d="M135 243.7c.1 1.2-.8 2.2-2 2.3s-2.2-.8-2.3-2v-.3c-.1-1.2.8-2.2 2-2.3s2.2.8 2.3 2v.3zm-3.5 0c0 .8.6 1.4 1.4 1.4s1.4-.6 1.4-1.4-.6-1.4-1.4-1.4-1.4.6-1.4 1.4z"/><path id="g" d="M128 211.2c0 1.2-1 2.1-2.2 2.1s-2.1-1-2.1-2.2 1-2.1 2.1-2.1c1.3 0 2.2 1 2.2 2.2h0zm-3.5 0c0 .8.6 1.4 1.4 1.4s1.4-.6 1.4-1.4-.6-1.4-1.4-1.4-1.4.6-1.4 1.4z"/><path id="h" d="M115.1 153c0 1.2-1 2.2-2.1 2.2-1.2 0-2.2-1-2.2-2.1 0-1.2 1-2.2 2.1-2.2 1.2-.1 2.2.9 2.2 2.1zm-3.5 0c0 .8.6 1.4 1.4 1.4s1.4-.6 1.4-1.4-.6-1.4-1.4-1.4-1.4.6-1.4 1.4z"/><path id="i" d="M108.1 170c0 1.2-1 2.1-2.2 2.1s-2.1-1-2.1-2.2 1-2.1 2.1-2.1a2.22 2.22 0 0 1 2.2 2.2zm-3.5 0c0 .7.6 1.4 1.3 1.4.8 0 1.4-.6 1.4-1.4s-.6-1.4-1.4-1.4-1.3.6-1.3 1.4z"/><path id="j" d="M99.3 193.6c0 1.2-1 2.1-2.2 2.1s-2.1-1-2.1-2.2 1-2.1 2.1-2.1c1.3.1 2.2 1 2.2 2.2zm-3.5 0c0 .8.6 1.4 1.4 1.4s1.4-.6 1.4-1.4-.6-1.4-1.4-1.4-1.4.6-1.4 1.4h0z"/><path id="k" d="M108.1 249.1c0 1.2-1 2.1-2.2 2.1s-2.1-1-2.1-2.2 1-2.1 2.2-2.1 2.1 1 2.1 2.2zm-3.5 0c-.1.8.5 1.4 1.2 1.5s1.4-.5 1.5-1.2v-.2c.1-.8-.5-1.4-1.2-1.5s-1.4.5-1.5 1.2v.2z"/><path id="l" d="M285.8 35.2c-1.2 0-2.1-1-2.1-2.2s1-2.1 2.2-2.1 2.1 1 2.1 2.1-1 2.2-2.2 2.2h0zm0-3.5c-.8 0-1.4.6-1.4 1.4s.6 1.4 1.4 1.4 1.4-.6 1.4-1.4c-.1-.8-.7-1.4-1.4-1.4z"/><path id="m" d="M257 58c-1.2 0-2.1-1-2.1-2.2s1-2.1 2.2-2.1 2.1 1 2.1 2.1c-.1 1.2-1 2.2-2.2 2.2zm0-3.5c-.8 0-1.4.6-1.4 1.3 0 .8.6 1.4 1.4 1.4s1.4-.6 1.4-1.4c-.1-.7-.7-1.3-1.4-1.3h0z"/><path id="n" d="M243.8 37c-1.2 0-2.2-1-2.2-2.1a2.22 2.22 0 0 1 2.2-2.2c1.2 0 2.2 1 2.2 2.1-.1 1.2-1 2.2-2.2 2.2zm0-3.6c-.8 0-1.4.6-1.4 1.4s.6 1.4 1.4 1.4 1.4-.6 1.4-1.4h0c-.1-.7-.7-1.4-1.4-1.4h0 0z"/><path id="o" d="M316.3 222.2h-23v-.8h22.2v-6.2h-8.9v-7.8h31.6v.8h-30.8v6.2h8.9z"/><path id="p" d="M343.1 222.2h-7.6v-7h-8.3v-.8h9v7h6.1v-7h8.6v.8h-7.8z"/><path id="q" d="M293.3 215.2h-15v-7h-16.2v-7h-14.4v-7H234v7h-17.6v-.8h16.8v-7h15.3v7h14.4v7h16.2v7h14.2z"/><path id="r" d="M372.3 208.2h-28.1v-7h-21.8v-7h-21v7h-17.9v-.8h17.2v-7h22.5v7H345v7h27.3z"/><path id="s" d="M295.1 161.9c-1.2 0-2.1-1-2.1-2.2s1-2.2 2.2-2.1c1.2 0 2.1 1 2.1 2.2-.1 1.2-1 2.1-2.2 2.1zm0-3.5c-.8 0-1.4.6-1.4 1.4s.6 1.4 1.4 1.4 1.4-.6 1.4-1.4h0c0-.8-.7-1.4-1.4-1.4h0z"/><path id="t" d="M279.9 168.9c-1.2 0-2.1-1-2.1-2.2s1-2.1 2.2-2.1 2.1 1 2.1 2.2-1 2.1-2.2 2.1h0zm0-3.5c-.8 0-1.4.6-1.4 1.4s.6 1.4 1.4 1.4 1.4-.6 1.4-1.4c0-.7-.6-1.4-1.4-1.4h0z"/><path id="u" d="M196 76.8c-1.2 0-2.1-1-2.1-2.2s1-2.1 2.2-2.1 2.1 1 2.1 2.1-1 2.2-2.2 2.2h0zm0-3.5c-.8 0-1.4.6-1.4 1.4s.6 1.4 1.4 1.4 1.4-.6 1.4-1.4-.6-1.4-1.4-1.4z"/><path id="v" d="M331.6 100c-1.2 0-2.1-1-2.1-2.2s1-2.1 2.2-2.1 2.1 1 2.1 2.1a2.22 2.22 0 0 1-2.2 2.2zm0-3.5c-.8 0-1.4.6-1.4 1.3 0 .8.6 1.4 1.4 1.4s1.4-.6 1.4-1.4c0-.7-.6-1.3-1.4-1.3z"/><path id="w" d="M203 128c-1.2 0-2.1-1-2.1-2.2s1-2.1 2.2-2.1 2.1 1 2.1 2.1c-.1 1.2-1 2.2-2.2 2.2zm0-3.5c-.8 0-1.4.6-1.4 1.4s.6 1.4 1.4 1.4 1.4-.6 1.4-1.4-.7-1.4-1.4-1.4z"/><path id="x" d="M243.8 135c-1.2 0-2.1-1-2.1-2.2s1-2.2 2.2-2.1c1.2 0 2.1 1 2.1 2.1-.1 1.2-1 2.2-2.2 2.2zm0-3.5c-.8 0-1.4.6-1.4 1.4s.6 1.4 1.4 1.4 1.4-.6 1.4-1.4c-.1-.8-.7-1.4-1.4-1.4h0z"/></defs><clipPath id="y"><use xlink:href="#B"/></clipPath><g clip-path="url(#y)" fill="#27a8e0"><path d="M70.6 129.5c1.2 0 2.1 1 2.1 2.2s-1 2.1-2.2 2.1-2.1-1-2.1-2.1c.1-1.2 1-2.2 2.2-2.2h0zm0 3.5c.8 0 1.4-.6 1.4-1.4s-.6-1.4-1.4-1.4-1.4.6-1.4 1.4c.1.8.7 1.4 1.4 1.4zm-17.9-3.5c1.2 0 2.1 1 2.1 2.2s-1 2.1-2.2 2.1-2.1-1-2.1-2.1a2.22 2.22 0 0 1 2.2-2.2h0zm0 3.5c.8 0 1.4-.6 1.4-1.4s-.6-1.4-1.4-1.4-1.4.6-1.4 1.4.6 1.4 1.4 1.4z"/><use xlink:href="#C"/><path d="M59.7 112c1.2 0 2.1 1 2.1 2.2s-1 2.1-2.2 2.1-2.1-1-2.1-2.1c0-1.3 1-2.2 2.2-2.2zm0 3.5c.8 0 1.4-.6 1.4-1.4s-.6-1.4-1.4-1.4-1.4.6-1.4 1.4h0c0 .8.6 1.4 1.4 1.4h0zM13.3 84c1.2 0 2.1 1 2.1 2.2s-1 2.1-2.2 2.1-2.1-1-2.1-2.2 1-2.1 2.2-2.1h0zm0 3.5c.8 0 1.4-.6 1.4-1.4s-.6-1.4-1.4-1.4-1.4.6-1.4 1.4.6 1.4 1.4 1.4zM2.1 85.7c1.2 0 2.1 1 2.1 2.2S3.3 90 2.1 90C1 90 0 89.1 0 87.9s1-2.2 2.1-2.2h0zm0 3.5c.8 0 1.4-.6 1.4-1.4s-.6-1.4-1.4-1.4-1.4.6-1.4 1.4c.1.8.7 1.4 1.4 1.4zm20.4-3.5c1.2 0 2.2 1 2.2 2.1 0 1.2-1 2.2-2.1 2.2-1.2 0-2.2-1-2.2-2.1 0-1.2.9-2.2 2.1-2.2zm0 3.5c.7 0 1.3-.6 1.4-1.3v-.1c0-.8-.6-1.4-1.4-1.4s-1.4.6-1.4 1.4c.1.8.7 1.4 1.4 1.4h0zm-.3 3.5c1.2 0 2.2 1 2.2 2.1 0 1.2-1 2.2-2.1 2.2-1.2 0-2.2-1-2.2-2.1 0-1.2 1-2.2 2.1-2.2h0zm0 3.5c.7 0 1.4-.6 1.4-1.3-.1-.8-.7-1.3-1.5-1.2-.7.1-1.2.6-1.2 1.2 0 .7.6 1.3 1.3 1.3h0zm32.3-3.5c1.2 0 2.1 1 2.1 2.2s-1 2.1-2.2 2.1-2.1-1-2.1-2.2c0-1.1 1-2.1 2.2-2.1-.1 0-.1 0 0 0zm0 3.5c.8 0 1.4-.6 1.4-1.4s-.6-1.4-1.4-1.4c-.7 0-1.3.6-1.4 1.3 0 .9.5 1.5 1.4 1.5-.1 0-.1 0 0 0h0z"/><use xlink:href="#D"/><path d="M40 99.7c1.2 0 2.1 1 2.1 2.2s-1 2.1-2.2 2.1-2.1-1-2.1-2.2c0-1.1 1-2.1 2.2-2.1zm0 3.5c.8 0 1.4-.6 1.4-1.4s-.6-1.4-1.4-1.4-1.4.6-1.4 1.4.6 1.4 1.4 1.4h0zm47.8 3.5c1.2 0 2.1 1 2.1 2.2s-1 2.1-2.2 2.1-2.1-1-2.1-2.1a2.22 2.22 0 0 1 2.2-2.2h0zm0 3.5c.8 0 1.4-.6 1.4-1.4s-.6-1.4-1.4-1.4-1.4.6-1.4 1.4.6 1.4 1.4 1.4h0zm11.6-3.5c1.2 0 2.1 1 2.1 2.2s-1 2.1-2.2 2.1-2.1-1-2.1-2.1a2.22 2.22 0 0 1 2.2-2.2zm0 3.5c.8-.1 1.3-.7 1.2-1.5-.1-.7-.6-1.2-1.2-1.2-.8-.1-1.4.5-1.5 1.2s.5 1.4 1.2 1.5c.1.1.2.1.3 0z"/><use xlink:href="#E"/><path d="M89.5 85.7c1.2 0 2.1 1 2.1 2.2s-1 2.1-2.2 2.1-2.1-1-2.1-2.1c.1-1.2 1-2.2 2.2-2.2zm0 3.5c.8 0 1.4-.6 1.4-1.4s-.6-1.4-1.4-1.4-1.4.6-1.4 1.4h0c.1.8.7 1.4 1.4 1.4h0zm43.8 10.5c1.2 0 2.1 1 2.1 2.2s-1 2.2-2.2 2.1c-1.2 0-2.1-1-2.1-2.2 0-1.1 1-2.1 2.2-2.1zm0 3.5c.8 0 1.4-.6 1.4-1.4s-.6-1.4-1.4-1.4-1.4.6-1.4 1.4h0c0 .8.6 1.4 1.4 1.4h0zm27.2-3.5c1.2 0 2.1 1 2.1 2.2s-1 2.1-2.2 2.1-2.1-1-2.1-2.2c0-1.1 1-2.1 2.2-2.1zm0 3.5c.8 0 1.4-.6 1.4-1.4s-.6-1.4-1.4-1.4-1.4.6-1.4 1.4h0c0 .8.6 1.4 1.4 1.4h0z"/><use xlink:href="#F"/><path d="M109.1 112c1.2 0 2.1 1 2.1 2.2s-1 2.1-2.2 2.1-2.1-1-2.1-2.1c0-1.3 1-2.2 2.2-2.2-.1 0-.1 0 0 0zm0 3.5c.8 0 1.4-.6 1.4-1.4s-.6-1.4-1.4-1.4-1.4.6-1.4 1.4h0c0 .8.6 1.4 1.4 1.4-.1 0-.1 0 0 0h0zm6 5.2c1.2 0 2.1 1 2.1 2.2s-1 2.1-2.2 2.1-2.1-1-2.1-2.1c.1-1.2 1-2.2 2.2-2.2h0zm0 3.5c.8 0 1.4-.6 1.4-1.4s-.6-1.4-1.4-1.4-1.4.6-1.4 1.4c.1.8.7 1.4 1.4 1.4h0zm27.1-10.5c1.2 0 2.1 1 2.1 2.2s-1 2.1-2.2 2.1-2.1-1-2.1-2.1c.1-1.2 1-2.2 2.2-2.2zm0 3.5c.8 0 1.4-.6 1.4-1.4s-.6-1.4-1.4-1.4-1.4.6-1.4 1.4.7 1.4 1.4 1.4h0z"/><use xlink:href="#G"/><path d="M178.4 106.7c1.2 0 2.1 1 2.1 2.2s-1 2.1-2.2 2.1-2.1-1-2.1-2.1a2.22 2.22 0 0 1 2.2-2.2h0zm0 3.5c.8.1 1.4-.5 1.5-1.2s-.5-1.4-1.2-1.5h-.2c-.8-.1-1.4.5-1.5 1.2s.5 1.4 1.2 1.5c0 .1.1.1.2 0zm-65.8 17.5c1.2 0 2.1 1 2.1 2.2s-1 2.1-2.2 2.1-2.1-1-2.1-2.1a2.22 2.22 0 0 1 2.2-2.2h0zm0 3.6c.8 0 1.4-.6 1.4-1.4s-.6-1.4-1.4-1.4-1.4.6-1.4 1.4h0c0 .7.6 1.4 1.4 1.4h0zm58-3.6c1.2 0 2.1 1 2.1 2.2s-1 2.1-2.2 2.1-2.1-1-2.1-2.1c.1-1.2 1-2.2 2.2-2.2h0zm0 3.6c.8 0 1.4-.6 1.4-1.4s-.6-1.4-1.4-1.4-1.4.6-1.4 1.4h0c0 .7.6 1.4 1.4 1.4h0zm-65.3-10.6c1.2 0 2.1 1 2.1 2.2s-1 2.1-2.2 2.1-2.1-1-2.1-2.1a2.22 2.22 0 0 1 2.2-2.2zm0 3.5c.8 0 1.4-.6 1.4-1.4s-.6-1.4-1.4-1.4-1.4.6-1.4 1.4.6 1.4 1.4 1.4h0zm-24-10.5c1.2 0 2.1 1 2.1 2.2s-1 2.1-2.2 2.1-2.1-1-2.1-2.1c.1-1.2 1-2.2 2.2-2.2h0zm0 3.5c.8 0 1.4-.6 1.4-1.4s-.6-1.4-1.4-1.4-1.4.6-1.4 1.4.7 1.4 1.4 1.4h0zm-71.2-6.5c1.2 0 2.1 1 2.1 2.2s-1 2.1-2.2 2.1-2.1-1-2.1-2.1a2.22 2.22 0 0 1 2.2-2.2zm0 3.5c.7 0 1.4-.6 1.4-1.3 0-.8-.6-1.4-1.4-1.4s-1.4.6-1.4 1.4c0 .7.6 1.3 1.4 1.3z"/><path d="M-15.9 112.4H8.4v.8h-24.3zm0-3.9H25v7h28.1v14.4h-.8v-13.6H24.2v-7h-40.1zm0-7h52.6v7h28.6v7h12.8v7.8H71v6.6h-.8v-7.4h7.1v-6.2H64.5v-7H35.9v-7h-51.8zm28.8-13.6h.8v7.4h-29.6v-.8h28.8zm10.9 6.6h28.9v.8H23.8zm17.8 7h31.2v7H86v.8H72v-7H41.6zm67.1 14.4h.7v14.4H96.2v-7H83.8v-.8h13.1v7h11.8zm-25.6-.4h17.2v7h3.2v.8h-4v-7H83.1zm31.4-21h31.6v.8h-30.9v6.2h8.9v7.8h-23v-.8h22.3v-6.2h-8.9zm20.5 7h9.1v7h6.1v-7h8.5v.8h-7.8v7h-7.6v-7H135zm-2.1 21h15.3v7h20.6v.8h-21.4v-7h-13.7v7h-19.3v-.8h18.5zm-4.5-7h12.2v.8h-11.4v7h-12.3v-.8h11.5zm32-7h15.7v.8h-15v6.2h5.7v7.8h-11.7v-.8H166v-6.2h-5.6zm-176.3-21H.4v.8h-16.3zm56.9-7h15.3v7h14.4v7h16.2v7h14.2v.8h-15v-7H69.9v-7H55.6v-7H41.8v7H24.3v-.8H41zm18.3 35.4h.8v14h-.8zm49.3-35.4h22.6v7H153v7h27.4v.8h-28.1v-7h-21.9v-7h-21.1v7H91.4v-.8h17.2zm5.4 7h11v.8h-11zm36.9-124c1.2 0 2.2.9 2.2 2.1s-.9 2.2-2.1 2.2-2.2-.9-2.2-2.1.9-2.2 2.1-2.2zm0 3.5c.8 0 1.4-.6 1.4-1.4s-.6-1.4-1.4-1.4-1.4.6-1.4 1.4.6 1.4 1.4 1.4zm11.1-5.3c1.2 0 2.1 1 2.1 2.2s-1 2.1-2.2 2.1-2.1-1-2.1-2.1c.1-1.2 1-2.2 2.2-2.2zm0 3.6c.8 0 1.4-.6 1.4-1.4s-.6-1.4-1.4-1.4-1.4.6-1.4 1.4h0c.1.7.7 1.4 1.4 1.4h0zm-20.3-3.6c1.2 0 2.1 1 2.1 2.2s-1 2.1-2.2 2.1-2.1-1-2.1-2.1a2.22 2.22 0 0 1 2.2-2.2c-.1 0-.1 0 0 0zm0 3.6c.8 0 1.4-.6 1.4-1.4s-.6-1.4-1.4-1.4-1.4.6-1.4 1.4c0 .7.6 1.3 1.4 1.4-.1 0-.1 0 0 0h0zm.2-10.6c1.2 0 2.2 1 2.2 2.1a2.22 2.22 0 0 1-2.2 2.2c-1.2 0-2.2-1-2.2-2.1.1-1.2 1-2.2 2.2-2.2zm0 3.6c.8 0 1.4-.6 1.4-1.4s-.6-1.4-1.4-1.4-1.4.6-1.4 1.4c.1.8.7 1.4 1.4 1.4h0 0zm-32.1-3.6c1.2 0 2.2 1 2.2 2.1a2.22 2.22 0 0 1-2.2 2.2c-1.2 0-2.2-1-2.2-2.1a2.22 2.22 0 0 1 2.2-2.2zm0 3.6c.8 0 1.4-.6 1.4-1.4s-.6-1.4-1.4-1.4-1.4.6-1.4 1.4.6 1.4 1.4 1.4h0zm8.6 5.2a2.22 2.22 0 0 1 2.2 2.2 2.22 2.22 0 0 1-2.2 2.2 2.22 2.22 0 0 1-2.2-2.2 2.22 2.22 0 0 1 2.2-2.2zm0 3.5c.8 0 1.4-.6 1.4-1.4s-.6-1.4-1.4-1.4-1.4.6-1.4 1.4h0c0 .8.6 1.4 1.4 1.4z"/><use xlink:href="#H"/><use xlink:href="#I"/><path d="M124.2-52.3c1.2 0 2.2 1 2.2 2.1 0 1.2-1 2.2-2.1 2.2-1.2 0-2.2-1-2.2-2.1 0-1.2.9-2.1 2.1-2.2zm0 3.6c.8 0 1.4-.6 1.4-1.4s-.6-1.4-1.3-1.4c-.8.1-1.3.7-1.3 1.5 0 .7.5 1.2 1.2 1.3zM76.4-59.3c1.2 0 2.1 1 2.1 2.2s-1 2.1-2.2 2.1-2.1-1-2.1-2.1 1-2.2 2.2-2.2h0zm0 3.5c.8 0 1.4-.6 1.3-1.4 0-.8-.6-1.4-1.4-1.3-.7 0-1.3.6-1.3 1.4 0 .7.7 1.3 1.4 1.3zm-11.6-3.5c1.2 0 2.1 1 2.1 2.2S66-55 64.8-55s-2.1-1-2.1-2.1c-.1-1.2.9-2.2 2.1-2.2zm0 3.5c.8 0 1.4-.6 1.3-1.4 0-.8-.6-1.4-1.4-1.3-.7 0-1.3.6-1.3 1.4 0 .7.6 1.3 1.4 1.3zM16.4-45.3a2.22 2.22 0 0 1 2.2 2.2 2.22 2.22 0 0 1-2.2 2.2 2.22 2.22 0 0 1-2.2-2.2h0a2.22 2.22 0 0 1 2.2-2.2zm0 3.6c.8 0 1.4-.6 1.4-1.4s-.6-1.4-1.4-1.4-1.4.6-1.4 1.4.6 1.4 1.4 1.4h0zm58.3 3.4c1.2 0 2.1 1 2.1 2.2s-1 2.1-2.2 2.1-2.1-1-2.1-2.1a2.22 2.22 0 0 1 2.2-2.2zm0 3.6c.8 0 1.4-.6 1.4-1.4s-.6-1.4-1.4-1.4-1.4.6-1.4 1.4c0 .7.6 1.4 1.4 1.4-.1 0-.1 0 0 0h0zM30.9-52.3c1.2 0 2.1 1 2.1 2.2S32-48 30.8-48s-2.1-1-2.1-2.1c.1-1.2 1-2.2 2.2-2.2zm0 3.6c.8 0 1.4-.6 1.4-1.4s-.6-1.4-1.4-1.4-1.4.6-1.4 1.4c0 .7.7 1.4 1.4 1.4zM3.7-52.3c1.2 0 2.1 1 2.1 2.2S4.9-48 3.7-48s-2.1-1-2.1-2.1.9-2.2 2.1-2.2h0zm0 3.6c.8 0 1.4-.6 1.4-1.4s-.6-1.4-1.4-1.4-1.4.6-1.4 1.4c0 .7.6 1.4 1.4 1.4zm146.8 5.2h29.6v.8h-28.8v6.6h-.8zm-39 0h28.9v.8h-28.9z"/><path d="M78.2-57.5h14v7h30.4v.8H91.4v-7H78.2zm-38.2 0h23.1v.8H40.8v6.2h8.9v7.8H18.1v-.8h30.8v-6.2H40z"/><use xlink:href="#J"/><path d="M163.8-36.5h16.3v.8h-16.3z"/><use xlink:href="#K"/><path d="M118-50.1h.8v14h-.8z"/><use xlink:href="#L"/><path d="M39.1-36.5h11v.8h-11zm108 13h33v.8h-33z"/><path d="M145.2-25.2c1.2 0 2.1 1 2.1 2.2s-1 2.1-2.2 2.1-2.1-1-2.1-2.1 1-2.2 2.2-2.2h0zm0 3.5c.8 0 1.4-.6 1.4-1.4s-.6-1.4-1.4-1.4-1.4.6-1.4 1.4.6 1.4 1.4 1.4zM93.6-27c1.2 0 2.1 1 2.1 2.2s-1 2.1-2.2 2.1-2.1-1-2.1-2.2c0-1.1 1-2.1 2.2-2.1zm0 3.5c.7 0 1.3-.6 1.4-1.3v-.1c0-.8-.6-1.4-1.4-1.4s-1.4.6-1.4 1.4.6 1.4 1.4 1.4zm34.6 5.3c1.2.1 2.1 1.1 2 2.3-.1 1.1-.9 1.9-2 2-1.2-.1-2.1-1.1-2-2.3 0-1.1.9-2 2-2zm0 3.5c.8 0 1.4-.6 1.4-1.4s-.6-1.4-1.4-1.4-1.4.6-1.4 1.4h0c0 .8.6 1.4 1.4 1.4-.1 0 0 0 0 0zM111.5-27c1.2 0 2.1 1 2.1 2.2s-1 2.1-2.2 2.1-2.1-1-2.1-2.2c.1-1.1 1-2.1 2.2-2.1zm0 3.5c.8 0 1.4-.6 1.3-1.4 0-.8-.6-1.4-1.4-1.3-.7 0-1.3.6-1.3 1.3 0 .8.6 1.4 1.4 1.4h0zm39.4 42c1.2 0 2.1 1 2.1 2.1s-1 2.1-2.1 2.1c-1.2 0-2.1-1-2.1-2.1s.9-2 2.1-2.1zm0 3.5c.8 0 1.4-.6 1.4-1.4s-.6-1.4-1.4-1.4-1.4.6-1.4 1.4c.1.8.7 1.4 1.4 1.4z"/><use xlink:href="#M"/><path d="M141.7 16.8c1.2 0 2.1 1 2.1 2.2s-1 2.1-2.2 2.1-2.1-1-2.1-2.1c0-1.3.9-2.2 2.2-2.2-.1 0-.1 0 0 0zm0 3.5c.8 0 1.4-.6 1.4-1.4s-.6-1.4-1.4-1.4-1.4.6-1.4 1.4.6 1.4 1.4 1.4zm.2-10.5c1.2 0 2.1 1 2.1 2.2s-1 2.1-2.2 2.1-2.1-1-2.1-2.1 1.1-2.2 2.2-2.2h0zm0 3.5c.8 0 1.4-.6 1.4-1.4s-.6-1.4-1.4-1.4-1.4.6-1.4 1.4c.1.8.7 1.4 1.4 1.4zm-38.4-3.5c1.2-.1 2.2.8 2.3 2s-.8 2.2-2 2.3h-.3c-1.2-.1-2.1-1.1-2-2.3.1-1.1.9-2 2-2zm0 3.5c.8 0 1.4-.6 1.4-1.4s-.6-1.4-1.4-1.4-1.4.6-1.4 1.4.6 1.4 1.4 1.4zm12.5 5.2c1.2 0 2.1 1 2.1 2.2s-1 2.1-2.2 2.1-2.1-1-2.1-2.1a2.22 2.22 0 0 1 2.2-2.2h0zm0 3.5c.8-.1 1.3-.7 1.2-1.5-.1-.7-.6-1.2-1.2-1.2-.8-.1-1.4.5-1.5 1.2-.1.8.5 1.4 1.2 1.5h.3zm0-21c1.2 0 2.2 1 2.2 2.1a2.22 2.22 0 0 1-2.2 2.2c-1.2 0-2.2-1-2.2-2.1A2.22 2.22 0 0 1 116 1c-.1 0-.1 0 0 0zm0 3.5c.8 0 1.4-.6 1.4-1.4s-.6-1.4-1.4-1.4-1.4.6-1.4 1.4.6 1.4 1.4 1.4c-.1 0 0 0 0 0zM61.3 2.8c1.2 0 2.1 1 2.1 2.2s-1 2.1-2.2 2.1-2.1-1-2.1-2.2 1-2.1 2.2-2.1zm0 3.5c.8 0 1.4-.6 1.4-1.4s-.7-1.4-1.4-1.4c-.8 0-1.4.6-1.4 1.4h0c0 .8.6 1.4 1.4 1.4zm62.9-.5c1.2 0 2.2 1 2.2 2.1 0 1.2-1 2.2-2.1 2.2-1.2 0-2.2-1-2.2-2.1 0-1.2.9-2.1 2.1-2.2zm0 3.5c.8 0 1.4-.6 1.4-1.4s-.6-1.4-1.4-1.4-1.4.6-1.4 1.4c.1.8.7 1.4 1.4 1.4h0zM76.4-4.2c1.2 0 2.1 1 2.1 2.2S77.5.1 76.3.1s-2.1-1-2.1-2.1c.1-1.3 1-2.2 2.2-2.2h0zm0 3.5c.8 0 1.4-.6 1.4-1.4s-.6-1.4-1.4-1.4-1.4.6-1.4 1.4h0c0 .8.7 1.4 1.4 1.4zM64.8-4.2c1.2 0 2.1 1 2.1 2.2S65.9.1 64.7.1s-2.1-1-2.1-2.1c0-1.3 1-2.2 2.2-2.2h0zm0 3.5c.8 0 1.4-.6 1.4-1.4s-.6-1.4-1.4-1.4-1.4.6-1.4 1.4h0c0 .8.6 1.4 1.4 1.4z"/><use xlink:href="#N"/><path d="M74.7 16.8c1.2 0 2.1 1 2.1 2.2s-1 2.1-2.2 2.1-2.1-1-2.1-2.1c0-1.3 1-2.2 2.2-2.2-.1 0-.1 0 0 0zm0 3.5c.8 0 1.4-.6 1.4-1.4s-.6-1.4-1.4-1.4-1.4.6-1.4 1.4.6 1.4 1.4 1.4zM30.9 2.8c1.2 0 2.1 1 2.1 2.2s-1 2.1-2.2 2.1-2.1-1-2.1-2.1c.1-1.3 1-2.2 2.2-2.2zm0 3.5c.8 0 1.4-.6 1.4-1.4s-.6-1.4-1.4-1.4-1.4.6-1.4 1.4c.1.8.7 1.4 1.4 1.4zM3.7 2.8c1.2 0 2.1 1 2.1 2.2s-1 2.1-2.2 2.1-2.1-1-2.1-2.1c0-1.3 1-2.2 2.2-2.2zm0 3.5c.8 0 1.4-.6 1.4-1.4s-.6-1.4-1.4-1.4-1.4.6-1.4 1.4.7 1.4 1.4 1.4zm78.4-24.5a2.22 2.22 0 0 1 2.2 2.2 2.22 2.22 0 0 1-2.2 2.2 2.22 2.22 0 0 1-2.2-2.2c0-1.3 1-2.2 2.2-2.2h0zm0 3.5c.8 0 1.4-.6 1.4-1.4s-.6-1.4-1.4-1.4-1.4.6-1.4 1.4h0c0 .8.6 1.4 1.4 1.4zm-27 5.2c1.2 0 2.1 1 2.1 2.2s-1 2.1-2.2 2.1-2.1-1-2.1-2.1c.1-1.2 1-2.2 2.2-2.2zm0 3.5c.8 0 1.4-.6 1.4-1.4s-.6-1.4-1.4-1.4-1.4.6-1.4 1.4h0c.1.8.7 1.4 1.4 1.4h0 0zm-6-12.2c1.2 0 2.1 1 2.1 2.2s-1 2.1-2.2 2.1-2.1-1-2.1-2.2 1-2.1 2.2-2.1h0zm0 3.5c.8 0 1.4-.6 1.4-1.4s-.6-1.4-1.4-1.4-1.4.6-1.4 1.4h0c0 .8.6 1.4 1.4 1.4z"/><use xlink:href="#O"/><use xlink:href="#P"/><path d="M-14.2-4.2c1.2 0 2.1 1 2.1 2.2s-1 2.1-2.2 2.1-2.1-1-2.1-2.1c.1-1.3 1-2.2 2.2-2.2zm0 3.5c.8 0 1.4-.6 1.4-1.4s-.6-1.4-1.4-1.4-1.4.6-1.4 1.4h0c.1.8.7 1.4 1.4 1.4zm65.8-24.5c1.2 0 2.1 1 2.1 2.2s-1 2.1-2.2 2.1-2.1-1-2.1-2.1c.1-1.3 1-2.2 2.2-2.2zm0 3.5c.8 0 1.4-.6 1.4-1.4s-.6-1.4-1.4-1.4-1.4.6-1.4 1.4.7 1.4 1.4 1.4zm-58-3.5c1.2 0 2.1 1 2.1 2.2s-1 2.1-2.2 2.1-2.1-1-2.1-2.1 1-2.2 2.2-2.2h0zm0 3.5c.8 0 1.4-.6 1.4-1.4s-.6-1.4-1.4-1.4-1.4.6-1.4 1.4.6 1.4 1.4 1.4zm65.3 3.5c1.2 0 2.1 1 2.1 2.2s-1 2.1-2.2 2.1-2.1-1-2.1-2.2c.1-1.2 1-2.1 2.2-2.1h0zm0 3.5c.8 0 1.4-.6 1.4-1.4s-.6-1.4-1.4-1.4-1.4.6-1.4 1.4h0c.1.8.7 1.4 1.4 1.4zm24 3.5c1.2 0 2.1 1 2.1 2.2s-1 2.1-2.2 2.1-2.1-1-2.1-2.2 1-2.1 2.2-2.1zm0 3.5c.8 0 1.4-.6 1.3-1.4s-.6-1.4-1.4-1.3c-.7 0-1.3.6-1.3 1.3 0 .8.6 1.4 1.4 1.4zm71.2-3.5c1.2 0 2.2 1 2.2 2.1 0 1.2-1 2.2-2.1 2.2-1.2 0-2.2-1-2.2-2.1 0-1.3.9-2.2 2.1-2.2zm0 3.5c.8 0 1.4-.6 1.4-1.4s-.6-1.4-1.4-1.4c-.7 0-1.4.6-1.4 1.4s.6 1.4 1.4 1.4zm-24.5-8.8h50.5v.8h-50.5z"/><path d="M155.9-9.5h24.3v.8h-24.3zm-44.8-13.6h.8v13.6H140v7h40.1v.8h-40.9v-7h-28.1zm-17.9 0h.8v7.4h-7.1v6.2h12.7v7h28.7v7h51.8v.8h-52.6v-7H98.9v-7H86.1v-7.8h7.1zm57.3 34.6h29.6v.8h-28.8v6.6h-.8zm-45.6 0h35.5v.8h-35.5zM78.2.5h14v7.1h30.4v.7H91.4v-7H78.2zm-23.5-24H68v7h12.4v.8H67.2v-7H55.5v13.6h-.8zm6 7h4v7h16.4v.8H63.9v-7h-3.2zM40-2.5h23.1v.8H40.8v6.2h8.9v7.8H18.1v-.8h30.8V5.3H40zm-26.8 0h7.7v7h8.3v.8h-9.1v-7H14v7H5.5v-.8h7.7zm-17.9-21h21.5v7h13.7v-7h19.2v.8H31.3v7H16v-7H-4.7zm39.7 7h12.3v.8H35.8v7H23.6v-.8H35zm-37.6 0H9.1v.8H-1.8v6.2h5.6v7.8h-15.7v-.8H3v-6.2h-5.6zm166.4 35h16.3v.8h-16.3zM63.1 4.5h15v7h16.2v7h14.3v7h13.8v-7h17.5v.8h-16.7v7h-15.4v-7H93.5v-7H77.3v-7H63.1zM104.5-27c1.2 0 2.1 1 2.1 2.2s-1 2.1-2.2 2.1-2.1-1-2.1-2.2c.1-1.1 1-2.1 2.2-2.1zm0 3.5c.7 0 1.4-.6 1.4-1.3 0-.8-.6-1.4-1.4-1.4s-1.4.6-1.4 1.4c0 .7.7 1.3 1.4 1.3h0zm0 14c1.2 0 2.1 1 2.1 2.2s-1 2.1-2.2 2.1-2.1-1-2.1-2.1c.1-1.2 1-2.2 2.2-2.2zm0 3.5c.7 0 1.4-.6 1.4-1.3 0-.8-.6-1.4-1.4-1.4s-1.4.6-1.4 1.4c0 .7.7 1.3 1.4 1.3h0z"/><path d="M104.1-23.1h.8v14h-.8zM157 70.4c1.2 0 2.1 1 2.1 2.2s-1 2.1-2.2 2.1-2.1-1-2.1-2.2 1-2.1 2.2-2.1zm0 3.5c.7 0 1.3-.6 1.4-1.3v-.1c0-.8-.6-1.4-1.4-1.4-.8-.1-1.4.5-1.5 1.2-.1.8.5 1.4 1.2 1.5.1.1.2.1.3.1h0zm0 13.9c1.2 0 2.1 1 2.1 2.2s-1 2.1-2.2 2.1-2.1-1-2.1-2.1a2.22 2.22 0 0 1 2.2-2.2h0zm0 3.6c.8 0 1.4-.6 1.4-1.4s-.6-1.4-1.4-1.4-1.4.6-1.4 1.4c0 .7.6 1.4 1.4 1.4z"/><path d="M156.6 74.3h.8v14h-.8zm1.4 7c0-1.2 1-2.1 2.2-2.1s2.1 1 2.1 2.2-1 2.1-2.1 2.1c-1.3-.1-2.2-1-2.2-2.2zm3.5 0c0-.7-.6-1.4-1.3-1.4-.8 0-1.4.6-1.4 1.4s.6 1.4 1.4 1.4 1.3-.7 1.3-1.4zm14 0c0-1.2 1-2.1 2.2-2.1s2.1 1 2.1 2.2-1 2.1-2.1 2.1c-1.2-.1-2.2-1-2.2-2.2zm3.5 0c0-.7-.6-1.4-1.3-1.4-.8 0-1.4.6-1.4 1.4s.6 1.4 1.4 1.4 1.3-.7 1.3-1.4z"/><path d="M161.9 80.9h14v.8h-14zm-102.2.4c0-1.2 1-2.1 2.2-2.1s2.2 1 2.1 2.2c0 1.2-1 2.1-2.2 2.1-1.1-.1-2.1-1-2.1-2.2zm3.5 0c0-.7-.6-1.4-1.3-1.4-.8 0-1.4.6-1.4 1.4s.6 1.4 1.4 1.4 1.3-.7 1.3-1.4zm14 0c0-1.2 1-2.1 2.2-2.1s2.1 1 2.1 2.2-1 2.1-2.1 2.1c-1.2-.1-2.2-1-2.2-2.2zm3.5 0c0-.7-.6-1.3-1.3-1.4h-.1c-.8 0-1.4.6-1.4 1.4s.6 1.4 1.4 1.4 1.4-.7 1.4-1.4z"/><path d="M63.6 80.9h14v.8h-14zm1.9-109.6c0-1.2 1-2.1 2.2-2.1s2.1 1 2.1 2.2-1 2.1-2.2 2.1c-1.1-.1-2.1-1-2.1-2.2zm3.5 0c0-.8-.6-1.4-1.4-1.4s-1.4.6-1.4 1.4.6 1.4 1.4 1.4c.8-.1 1.4-.7 1.4-1.4zm14 0c0-1.2 1-2.1 2.2-2.1s2.1 1 2.1 2.2-1 2.1-2.1 2.1c-1.2-.1-2.2-1-2.2-2.2zm3.5 0c0-.7-.6-1.4-1.3-1.4-.8 0-1.4.6-1.4 1.4s.6 1.4 1.4 1.4c.7-.1 1.3-.7 1.3-1.4z"/><path d="M69.4-29.1h14v.8h-14zm82.3-21.4c0-1.2 1-2.1 2.2-2.1s2.1 1 2.1 2.2-1 2.1-2.2 2.1c-1.2-.1-2.2-1-2.1-2.2zm3.5 0c-.1-.8-.7-1.3-1.5-1.2-.7.1-1.2.6-1.2 1.2-.1.8.5 1.4 1.2 1.5.8.1 1.4-.5 1.5-1.2v-.3zm14 0c0-1.2 1-2.1 2.2-2.1s2.1 1 2.1 2.1c0 1.2-1 2.1-2.1 2.1-1.3 0-2.2-.9-2.2-2.1zm3.5 0c0-.8-.6-1.4-1.4-1.4s-1.4.6-1.4 1.4.6 1.4 1.4 1.4 1.4-.6 1.4-1.4z"/><path d="M155.6-50.9h14v.8h-14zM-12.3 24.2c.1-1.2 1.1-2.1 2.3-2 1.1.1 1.9.9 2 2 .1 1.2-.8 2.2-2 2.3s-2.2-.8-2.3-2c-.1-.1-.1-.2 0-.3h0zm3.5 0c0-.8-.6-1.4-1.4-1.4s-1.4.6-1.4 1.4.6 1.4 1.4 1.4h0c.7-.1 1.4-.7 1.4-1.4zm14 0c0-1.2 1-2.1 2.2-2.1s2.1 1 2.1 2.1c0 1.2-1 2.2-2.1 2.2-1.3-.1-2.2-1-2.2-2.2zm3.5 0c0-.8-.6-1.4-1.4-1.4s-1.4.6-1.4 1.4.6 1.4 1.4 1.4h0c.8-.1 1.4-.7 1.4-1.4h0z"/><path d="M-8.4 23.8h14v.8h-14zm-3.9-56c0-1.2 1-2.1 2.2-2.1s2.1 1 2.1 2.2-1 2.1-2.2 2.1-2.1-1-2.1-2.2c0 .1 0 0 0 0zm3.5 0c0-.8-.6-1.4-1.4-1.4s-1.4.6-1.4 1.4.6 1.4 1.4 1.4h0c.7 0 1.4-.6 1.4-1.4 0 .1 0 0 0 0zm14 0c0-1.2 1-2.1 2.2-2.1s2.1 1 2.1 2.2-1 2.1-2.1 2.1c-1.3 0-2.2-.9-2.2-2.2 0 .1 0 0 0 0zm3.5 0c0-.8-.6-1.4-1.4-1.4s-1.4.6-1.4 1.4.6 1.4 1.4 1.4h0c.8 0 1.4-.6 1.4-1.4 0 .1 0 0 0 0h0z"/><path d="M-8.4-32.6h14v.8h-14zm-4-23.6c0-1.2 1-2.1 2.2-2.1s2.1 1 2.1 2.2-1 2.1-2.2 2.1c-1.1 0-2.1-.9-2.1-2.2 0 .1 0 .1 0 0zm3.6 0c0-.8-.6-1.4-1.4-1.4s-1.4.6-1.4 1.4.6 1.4 1.4 1.4c.7 0 1.3-.6 1.4-1.4 0 .1 0 0 0 0zm14 0c0-1.2 1-2.1 2.2-2.1s2.1 1 2.1 2.2-1 2.1-2.1 2.1c-1.3 0-2.2-.9-2.2-2.2 0 .1 0 0 0 0zm3.5 0c0-.7-.6-1.4-1.3-1.4-.8 0-1.4.6-1.4 1.4s.6 1.4 1.4 1.4c.7 0 1.3-.6 1.3-1.4z"/><path d="M-8.5-56.6h14v.8h-14zm135.7.4c0-1.2 1-2.1 2.1-2.1s2.1 1 2.1 2.1h0c0 1.2-1 2.1-2.1 2.1s-2.1-.9-2.1-2.1zm3.5 0c0-.7-.6-1.4-1.3-1.4-.8 0-1.4.6-1.4 1.4s.6 1.4 1.4 1.4c.7 0 1.3-.6 1.3-1.4zm14 0c0-1.2 1-2.1 2.2-2.1s2.1 1 2.1 2.2-1 2.1-2.1 2.1c-1.2 0-2.2-.9-2.2-2.2 0 .1 0 0 0 0zm3.5 0c0-.8-.6-1.4-1.4-1.4s-1.4.6-1.4 1.4.6 1.4 1.4 1.4 1.4-.6 1.4-1.4z"/><path d="M131.1-56.6h14v.8h-14zM76.9 26.3c0-1.2 1-2.1 2.2-2.1s2.1 1 2.1 2.2-1 2.1-2.2 2.1-2.1-1-2.1-2.2zm3.5 0c0-.7-.6-1.4-1.3-1.4-.8 0-1.4.6-1.4 1.4s.6 1.4 1.4 1.4c.7 0 1.3-.6 1.3-1.4h0zm14 0c0-1.2 1-2.1 2.2-2.1s2.1 1 2.1 2.1c0 1.2-1 2.1-2.1 2.1-1.3.1-2.2-.9-2.2-2.1zm3.5 0c0-.8-.6-1.4-1.3-1.4-.8 0-1.4.6-1.4 1.4s.6 1.4 1.4 1.4c.7 0 1.3-.6 1.3-1.4h0z"/><path d="M80.8 25.9h14v.8h-14zm36.5-50.8c0-1.2 1-2.1 2.2-2.1s2.1 1 2.1 2.2-1 2.1-2.2 2.1-2.1-1-2.1-2.2c0 .1 0 .1 0 0zm3.5 0c0-.7-.6-1.4-1.3-1.4-.8 0-1.4.6-1.4 1.4s.6 1.4 1.4 1.4 1.3-.6 1.3-1.4c0 .1 0 .1 0 0zm14 0c0-1.2 1-2.1 2.2-2.1s2.1 1 2.1 2.2-1 2.1-2.1 2.1c-1.3 0-2.2-1-2.2-2.2zm3.5 0c0-.8-.6-1.4-1.4-1.4s-1.4.6-1.4 1.4.6 1.4 1.4 1.4 1.4-.6 1.4-1.4c0 .1 0 .1 0 0z"/><path d="M121.2-25.2h14v.8h-14zm-5.6 30.1h.8v14h-.8zm-131.5 6.6h28v7h21.8v7h21v-7h17.9v.8H55.7v7H33.2v-7H11.4v-7h-27.3zm55 7h11v.8h-11zm-55 13h33v.8h-33z"/><path d="M19 29.7a2.22 2.22 0 0 1 2.2 2.2c0 1.2-1 2.1-2.2 2.1a2.22 2.22 0 0 1-2.2-2.2c.1-1.1 1-2.1 2.2-2.1zm0 3.5c.8 0 1.4-.6 1.4-1.4s-.6-1.4-1.4-1.4-1.4.6-1.4 1.4h0c.1.8.7 1.4 1.4 1.4zM70.6 28c1.2 0 2.1 1 2.1 2.2s-1 2.1-2.2 2.1-2.1-1-2.1-2.2c.1-1.2 1-2.1 2.2-2.1zm0 3.5c.8 0 1.4-.6 1.4-1.4s-.6-1.4-1.4-1.4-1.4.6-1.4 1.4h0c.1.8.7 1.4 1.4 1.4z"/><use xlink:href="#Q"/><path d="M52.7 28c1.2 0 2.2 1 2.2 2.1 0 1.2-1 2.2-2.1 2.2-1.2 0-2.2-1-2.2-2.1-.1-1.3.9-2.2 2.1-2.2h0zm0 3.5c.8 0 1.4-.6 1.4-1.4s-.6-1.4-1.4-1.4-1.4.6-1.4 1.4.6 1.4 1.4 1.4zm7-3.5c1.2 0 2.1 1 2.1 2.2s-1 2.1-2.2 2.1-2.1-1-2.1-2.2 1-2.1 2.2-2.1zm0 3.5c.8 0 1.4-.6 1.4-1.4s-.6-1.4-1.4-1.4-1.4.6-1.4 1.4h0c0 .8.6 1.4 1.4 1.4z"/><use xlink:href="#R"/><path d="M18.8 79.5c1.2 0 2.1 1 2.1 2.2s-1 2.1-2.2 2.1-2.1-1-2.1-2.1a2.22 2.22 0 0 1 2.2-2.2zm0 3.5c.8 0 1.4-.6 1.3-1.4s-.6-1.4-1.4-1.3c-.8 0-1.4.6-1.3 1.4S18 83 18.8 83zM2.1 71.7c1.2 0 2.1 1 2.1 2.2S3.3 76 2.1 76C1 76 0 75.1 0 73.9s1-2.2 2.1-2.2h0zm0 3.5c.8 0 1.4-.6 1.4-1.4s-.6-1.4-1.4-1.4c-.7 0-1.3.6-1.4 1.3.1.9.6 1.5 1.4 1.5zm26.2-1.4c1.2 0 2.2 1 2.2 2.1a2.22 2.22 0 0 1-2.2 2.2c-1.2 0-2.2-1-2.2-2.1.1-1.2 1-2.2 2.2-2.2zm0 3.6c.8 0 1.4-.6 1.4-1.4s-.6-1.4-1.4-1.4c-.7 0-1.4.6-1.4 1.3 0 .9.6 1.5 1.4 1.5h0zm-6.1-12.7c1.2 0 2.2 1 2.2 2.1 0 1.2-1 2.2-2.1 2.2-1.2 0-2.2-1-2.2-2.1 0-1.2 1-2.2 2.1-2.2zm0 3.5c.8 0 1.4-.6 1.4-1.3 0-.8-.6-1.4-1.4-1.4s-1.4.6-1.4 1.4c.1.7.7 1.3 1.4 1.3zm32.3-3.5c1.2 0 2.1 1 2.1 2.2s-1 2.1-2.2 2.1-2.1-1-2.1-2.1c0-1.2.9-2.2 2.2-2.2-.1 0-.1 0 0 0zm0 3.5c.7 0 1.3-.6 1.3-1.4s-.6-1.4-1.4-1.4-1.4.6-1.4 1.4c.1.8.7 1.4 1.5 1.4h0zm-8.7 3.5c1.2 0 2.2 1 2.2 2.1S47 76 45.8 76s-2.1-1-2.1-2.1c0-1.2.9-2.2 2.1-2.2zm0 3.5c.8 0 1.4-.6 1.4-1.4s-.6-1.4-1.4-1.4-1.4.6-1.4 1.4c.1.8.7 1.4 1.4 1.4zm0-21c1.2 0 2.2 1 2.2 2.1 0 1.2-1 2.2-2.1 2.2-1.2 0-2.2-1-2.2-2.1 0-1.3.9-2.2 2.1-2.2zm0 3.5c.8 0 1.4-.6 1.4-1.4s-.6-1.4-1.4-1.4c-.7 0-1.3.6-1.4 1.3v.1c.1.8.7 1.4 1.4 1.4zm57.1 0c1.2 0 2.1 1 2.1 2.2s-1 2.1-2.2 2.1-2.1-1-2.1-2.2c.1-1.1 1-2.1 2.2-2.1zm0 3.5c.8 0 1.4-.6 1.3-1.4 0-.8-.6-1.4-1.4-1.3-.7 0-1.3.6-1.3 1.4.1.7.7 1.3 1.4 1.3zm-65.5 0c1.2 0 2.1 1 2.1 2.2s-1 2.1-2.2 2.1-2.1-1-2.1-2.1a2.22 2.22 0 0 1 2.2-2.2zm0 3.5c.8-.1 1.3-.7 1.2-1.5-.1-.7-.6-1.2-1.2-1.2-.8 0-1.4.6-1.4 1.4h0c0 .7.6 1.3 1.4 1.3zm50.4-14c1.2-.1 2.2.8 2.3 2s-.8 2.2-2 2.3h-.3c-1.2.1-2.2-.8-2.3-2s.8-2.2 2-2.3h.3zm0 3.5c.8 0 1.4-.6 1.3-1.4s-.6-1.4-1.4-1.3c-.7 0-1.3.6-1.3 1.3 0 .8.6 1.4 1.4 1.4zm11.6-3.5c1.2 0 2.1 1 2.1 2.2s-1 2.1-2.2 2.1-2.1-1-2.1-2.2c0-1.1 1-2.1 2.2-2.1zm0 3.5c.8 0 1.4-.6 1.3-1.4s-.6-1.4-1.4-1.3c-.7 0-1.3.6-1.3 1.3 0 .8.6 1.4 1.4 1.4z"/><use xlink:href="#S"/><path d="M89.5 71.7c1.2 0 2.1 1 2.1 2.2s-1 2.1-2.2 2.1-2.1-1-2.1-2.1c.1-1.2 1-2.2 2.2-2.2zm0 3.5c.8 0 1.4-.6 1.4-1.4s-.6-1.4-1.4-1.4-1.4.6-1.4 1.4h0c.1.8.7 1.4 1.4 1.4zm43.8-17.5c1.2 0 2.1 1 2.1 2.2s-1 2.1-2.2 2.1-2.1-1-2.1-2.1a2.22 2.22 0 0 1 2.2-2.2h0zm0 3.5c.8 0 1.4-.6 1.4-1.3 0-.8-.6-1.4-1.4-1.4s-1.4.6-1.4 1.4c0 .7.6 1.3 1.4 1.3h0zm27.2-3.5c1.2 0 2.1 1 2.1 2.2s-1 2.1-2.2 2.1-2.1-1-2.1-2.1a2.22 2.22 0 0 1 2.2-2.2zm0 3.5c.8 0 1.4-.6 1.4-1.3 0-.8-.6-1.4-1.4-1.4s-1.4.6-1.4 1.4c0 .7.6 1.3 1.4 1.3h0zM82.1 36.7c1.2 0 2.1 1 2.1 2.2S83.2 41 82 41s-2.1-1-2.1-2.2c0-1.1 1-2.1 2.2-2.1zm0 3.5c.8 0 1.4-.6 1.4-1.3 0-.8-.6-1.4-1.3-1.4-.8 0-1.4.6-1.4 1.3 0 .8.5 1.4 1.3 1.4zm27 5.3a2.22 2.22 0 0 1 2.2 2.2 2.22 2.22 0 0 1-2.2 2.2 2.22 2.22 0 0 1-2.2-2.2h0c0-1.3 1-2.2 2.2-2.2zm0 3.5c.8 0 1.4-.6 1.4-1.4s-.6-1.4-1.4-1.4-1.4.6-1.4 1.4h0c0 .8.6 1.4 1.4 1.4zm6-12.3c1.2 0 2.1 1 2.1 2.2s-1 2.1-2.2 2.1-2.1-1-2.1-2.2c.1-1.1 1.1-2.1 2.2-2.1zm0 3.5c.8 0 1.4-.6 1.4-1.4s-.6-1.4-1.4-1.4-1.4.6-1.4 1.4c.1.8.7 1.4 1.4 1.4zm27.1 3.5c1.2 0 2.1 1 2.1 2.2s-1 2.1-2.2 2.1-2.1-1-2.1-2.2c.1-1.1 1-2.1 2.2-2.1zm0 3.5c.8 0 1.4-.6 1.4-1.4s-.6-1.4-1.4-1.4-1.4.6-1.4 1.4.7 1.4 1.4 1.4zm11.2-10.5c1.2 0 2.1 1 2.1 2.2s-1 2.1-2.2 2.1-2.1-1-2.1-2.2c0-1.1 1-2.1 2.2-2.1zm0 3.5c.8 0 1.4-.6 1.4-1.3v-.1c-.1-.8-.7-1.3-1.5-1.2-.7.1-1.2.6-1.2 1.2-.1.8.5 1.4 1.3 1.4h0zm25 10.5c1.2-.1 2.2.8 2.3 2s-.8 2.2-2 2.3h-.3c-1.2.1-2.2-.8-2.3-2s.8-2.2 2-2.3h.3zm0 3.5c.8 0 1.4-.6 1.4-1.4s-.6-1.4-1.4-1.4-1.4.6-1.4 1.4.6 1.4 1.4 1.4h0zm-65.8-24.5c1.2 0 2.2 1 2.2 2.1a2.22 2.22 0 0 1-2.2 2.2c-1.2 0-2.2-1-2.2-2.1a2.22 2.22 0 0 1 2.2-2.2zm0 3.5c.8 0 1.4-.6 1.4-1.4s-.6-1.4-1.4-1.4-1.4.6-1.4 1.4h0c0 .8.6 1.4 1.4 1.4zm58-3.5c1.2 0 2.2 1 2.2 2.1a2.22 2.22 0 0 1-2.2 2.2c-1.2 0-2.2-1-2.2-2.1.1-1.2 1-2.2 2.2-2.2zm0 3.5c.8 0 1.4-.6 1.4-1.4s-.6-1.4-1.4-1.4-1.4.6-1.4 1.4h0c0 .8.6 1.4 1.4 1.4zm-65.3 3.5c1.2 0 2.1 1 2.1 2.2s-1 2.1-2.2 2.1-2.1-1-2.1-2.2c0-1.1 1-2.1 2.2-2.1zm0 3.5c.8 0 1.4-.6 1.4-1.4-.1-.8-.7-1.3-1.5-1.2-.7.1-1.2.6-1.2 1.2-.1.8.5 1.4 1.3 1.4h0zm-24 3.5c1.2 0 2.1 1 2.1 2.2s-1 2.1-2.2 2.1-2.1-1-2.1-2.2c.1-1.1 1-2.1 2.2-2.1h0zm0 3.5c.8 0 1.4-.6 1.4-1.4s-.6-1.4-1.4-1.4-1.4.6-1.4 1.4.7 1.4 1.4 1.4h0zm-71.2-3.5c1.2 0 2.1 1 2.1 2.2S11.2 48 10 48s-2.1-1-2.1-2.2c0-1.1 1-2.1 2.2-2.1zm0 3.5c.8 0 1.4-.6 1.4-1.3 0-.8-.6-1.4-1.3-1.4-.8 0-1.4.6-1.4 1.3 0 .8.5 1.4 1.3 1.4h0zm-26-8.7h50.5v.8h-50.5z"/><path d="M-15.9 45.5H8.4v.8h-24.3zm68.2-13.6h.8v14.4H25v6.9h-40.9v-.7h40.1v-7h28.1zm17.9 0h.8v6.6h7.1v7.8H65.3v6.9H36.7v7.1h-52.6v-.8h51.8v-7h28.6v-7h12.8v-6.2h-7.1zm-80.7 40.6h29.6v7.4h-.8v-6.6h-28.8zm34.3-6h28.9v.8H23.8zM69.4 56h14v.7H70.2v7.1H39V63h30.4zm26.8-24.5h13.2v14.4h-.7V32.3H96.9v7H83.8v-.8h12.4zm3.3 7h4v.8h-3.2v7H83.1v-.8h16.4zm1.6 14h23v7.8h-8.9v6.2h30.9v.8h-31.6v-7.8h8.9v-6.3h-22.3zm42.2 0h7.6v7h7.8v.7h-8.5v-7h-6.1v7.1H135v-.8h8.3zm-28.9-21h19.3v7h13.7v-7h21.4v.8h-20.6v7h-15.3v-7h-18.5zm2.5 7h12.3v7h11.4v.8h-12.2v-7h-11.5zm38.2 0h11.7v7.8h-5.7v6.2h15v.7h-15.7v-7.7h5.6v-6.2h-10.9zm-171 35H.4v.8h-16.3zM91.9 61.6h15v.8H92.7v7H76.5v7H62.1v7H46.8v-7H30v-.8h17.6v7h13.7v-7h14.4v-7h16.2zM59.3 31.9h.8v14h-.8z"/><path d="M45.4 58.1h.8v14h-.8zm106.8 8.4h28.1v.8H153v7h-21.9v7h-22.6v-7H91.4v-.8h17.9v7h21v-7h21.9zm-38.2 7h11v.8h-11zm13.2 12.2c1.2 0 2.1 1 2.1 2.2s-1 2.1-2.2 2.1-2.1-1-2.1-2.2c.1-1.1 1-2.1 2.2-2.1zm0 3.5c.8 0 1.4-.6 1.4-1.4s-.6-1.4-1.4-1.4-1.4.6-1.4 1.4h0c.1.8.7 1.4 1.4 1.4z"/><path d="M127.2 71.7c1.2 0 2.1 1 2.1 2.2s-1 2.1-2.2 2.1-2.1-1-2.1-2.2c.1-1.1 1-2.1 2.2-2.1zm0 3.5c.8 0 1.4-.6 1.4-1.4s-.6-1.4-1.4-1.4-1.4.6-1.4 1.4h0c.1.8.7 1.4 1.4 1.4h0z"/><use xlink:href="#T"/><path d="M51.9 16.8c1.2 0 2.1 1 2.1 2.1 0 1.2-1 2.1-2.1 2.1-1.2 0-2.1-1-2.1-2.1s.9-2.1 2.1-2.1zm0 3.5c.8 0 1.4-.6 1.4-1.4s-.6-1.4-1.4-1.4-1.4.6-1.4 1.4h0c.1.8.7 1.4 1.4 1.4h0zM37 16.8c1.2 0 2.1 1 2.1 2.1 0 1.2-1 2.1-2.1 2.1-1.2 0-2.1-1-2.1-2.1-.1-1.1.9-2.1 2.1-2.1zm0 3.5c.8 0 1.4-.6 1.4-1.4s-.6-1.4-1.4-1.4-1.4.6-1.4 1.4h0c0 .8.6 1.4 1.4 1.4h0zm0-58.6c1.2.1 2.1 1.1 2 2.3-.1 1.1-.9 1.9-2 2-1.2.1-2.2-.8-2.3-2s.8-2.2 2-2.3h.3zm0 3.5c.8 0 1.4-.6 1.3-1.4s-.6-1.4-1.4-1.3c-.7 0-1.3.6-1.3 1.3 0 .8.6 1.4 1.4 1.4zm14.9-3.5c1.2 0 2.2.9 2.2 2.1S53.2-34 52-34s-2.2-.9-2.2-2.1v-.1c0-1.1.9-2 2.1-2.1zm0 3.5c.8 0 1.4-.6 1.4-1.4s-.6-1.4-1.4-1.4c-.7 0-1.4.6-1.4 1.4s.6 1.4 1.4 1.4zm60 120.5c1.2 0 2.2.9 2.2 2.1s-.9 2.2-2.1 2.2-2.2-.9-2.2-2.1v-.1c0-1.1.9-2.1 2.1-2.1zm0 3.5c.7 0 1.4-.6 1.4-1.3 0-.8-.6-1.4-1.4-1.4s-1.4.6-1.4 1.4.6 1.3 1.4 1.3zm-94.4 25.4h.8v33h-.8z"/><use xlink:href="#U"/><path d="M15.3 204.6c0 1.2-1 2.1-2.2 2.1s-2.1-1-2.1-2.2 1-2.1 2.1-2.1c1.3 0 2.2 1 2.2 2.2zm-3.5 0c0 .8.6 1.4 1.4 1.4s1.4-.6 1.4-1.4-.6-1.4-1.4-1.4-1.4.6-1.4 1.4h0zM24.1 170c0 1.2-1 2.1-2.2 2.1s-2.1-1-2.1-2.2 1-2.1 2.1-2.1a2.22 2.22 0 0 1 2.2 2.2h0zm-3.5 0c0 .8.6 1.4 1.4 1.4s1.4-.6 1.4-1.4-.6-1.4-1.4-1.4h0c-.8 0-1.4.6-1.4 1.4h0zm-5.3 16.6c0 1.2-1 2.1-2.2 2.1s-2.1-1-2.1-2.2 1-2.1 2.1-2.1c1.3.1 2.2 1.1 2.2 2.2h0zm-3.5 0c0 .8.6 1.4 1.4 1.4s1.4-.6 1.4-1.4-.6-1.4-1.4-1.4c-.8.1-1.4.6-1.4 1.4h0zm3.5 7c0 1.2-1 2.1-2.2 2.1s-2.1-1-2.1-2.2 1-2.1 2.1-2.1c1.2.1 2.2 1 2.2 2.2zm-3.5 0c0 .8.6 1.4 1.4 1.4s1.4-.6 1.4-1.4-.6-1.4-1.4-1.4-1.4.7-1.4 1.4h0z"/><use xlink:href="#V"/><path d="M60.8 147.2c0 1.2-1 2.1-2.2 2.1s-2.2-1-2.1-2.2c0-1.2 1-2.1 2.2-2.1 1.2.1 2.1 1 2.1 2.2zm-3.5 0c0 .7.6 1.4 1.3 1.4.8 0 1.4-.6 1.4-1.4s-.6-1.4-1.4-1.4c-.7.1-1.3.7-1.3 1.4h0zm1.8-11.1c0 1.2-1 2.1-2.2 2.1s-2.1-1-2.1-2.2 1-2.1 2.1-2.1a2.22 2.22 0 0 1 2.2 2.2h0zm-3.5 0c0 .8.6 1.4 1.4 1.4s1.4-.6 1.4-1.4-.6-1.4-1.4-1.4-1.4.6-1.4 1.4zm3.5 20.4c0 1.2-1 2.2-2.1 2.2-1.2 0-2.2-1-2.2-2.1 0-1.2 1-2.2 2.1-2.2 1.2-.1 2.2.9 2.2 2.1zm-3.5 0c0 .7.6 1.3 1.3 1.4h.1c.8 0 1.4-.6 1.4-1.4s-.6-1.4-1.4-1.4-1.4.6-1.4 1.4zm-3.5-.3c0 1.2-1 2.2-2.1 2.2-1.2 0-2.2-1-2.2-2.1 0-1.2 1-2.2 2.1-2.2 1.2 0 2.2.9 2.2 2.1h0zm-3.5 0c0 .7.6 1.3 1.3 1.4h.1c.8 0 1.4-.6 1.3-1.4 0-.8-.6-1.4-1.4-1.3-.7-.1-1.3.6-1.3 1.3zm5.6 38.4c0 1.2-1 2.1-2.2 2.1s-2.1-1-2.1-2.2 1-2.1 2.1-2.1a2.22 2.22 0 0 1 2.2 2.2zm-3.5 0c0 .8.6 1.4 1.4 1.3.8 0 1.4-.6 1.3-1.4 0-.7-.6-1.3-1.3-1.3-.8 0-1.4.6-1.4 1.4z"/><use xlink:href="#W"/><use xlink:href="#X"/><use xlink:href="#Y"/><path d="M38.1 221.7c0 1.2-1 2.1-2.2 2.1s-2.1-1-2.1-2.2 1-2.1 2.1-2.1c1.2.1 2.2 1 2.2 2.2zm-3.5 0c0 .8.6 1.4 1.3 1.4.8 0 1.4-.6 1.4-1.4s-.6-1.4-1.4-1.4c-.7.1-1.3.7-1.3 1.4zm3.5 11.6c0 1.2-1 2.1-2.2 2.1s-2.1-1-2.1-2.2 1-2.1 2.1-2.1c1.2.1 2.2 1 2.2 2.2zm-3.5 0c0 .8.6 1.4 1.3 1.4.8.1 1.4-.5 1.5-1.2s-.5-1.4-1.2-1.5H36c-.8 0-1.4.6-1.4 1.3zm17.5 48.5c0 1.2-1 2.1-2.2 2.1s-2.2-1-2.1-2.2c0-1.2 1-2.1 2.2-2.1 1.1 0 2.1 1 2.1 2.2zm-3.5 0c0 .8.6 1.4 1.4 1.4s1.4-.6 1.4-1.4-.6-1.4-1.4-1.4-1.4.6-1.4 1.4z"/><use xlink:href="#Z"/><use xlink:href="#a"/><path d="M45.1 294.4c0 1.2-1 2.1-2.2 2.1s-2.2-1-2.1-2.2c0-1.2 1-2.1 2.2-2.1 1.1.1 2.1 1 2.1 2.2zm-3.5 0c0 .8.6 1.4 1.4 1.4s1.4-.6 1.4-1.4-.6-1.4-1.4-1.4c-.8.1-1.4.7-1.4 1.4zM24.1 216c0 1.2-1 2.1-2.2 2.1s-2.1-1-2.1-2.2 1-2.1 2.1-2.1c1.2.1 2.2 1.1 2.2 2.2h0zm-3.5 0c0 .8.6 1.4 1.4 1.4s1.4-.6 1.4-1.4-.6-1.4-1.4-1.4h0c-.8.1-1.4.7-1.4 1.4h0zm12.2 27c0 1.2-1 2.1-2.2 2.1s-2.1-1-2.1-2.2 1-2.1 2.1-2.1c1.3.1 2.2 1 2.2 2.2zm-3.5 0c0 .8.6 1.4 1.4 1.4s1.4-.6 1.4-1.4-.6-1.4-1.4-1.4-1.4.6-1.4 1.4z"/><use xlink:href="#b"/><path d="M31.1 276.2c0 1.2-1 2.1-2.2 2.1s-2.1-1-2.1-2.2 1-2.1 2.1-2.1a2.22 2.22 0 0 1 2.2 2.2zm-3.5 0c0 .8.6 1.4 1.4 1.4s1.4-.6 1.4-1.4-.6-1.4-1.4-1.4-1.4.6-1.4 1.4z"/><use xlink:href="#c"/><path d="M38.1 312.3c0 1.2-1 2.1-2.2 2.1s-2.1-1-2.1-2.2 1-2.1 2.1-2.1c1.2.1 2.2 1 2.2 2.2h0zm-3.5 0c-.1.8.5 1.4 1.2 1.5s1.4-.5 1.5-1.2v-.2c0-.8-.6-1.4-1.4-1.4-.7-.1-1.3.6-1.3 1.3zm-17.5-65.8a2.22 2.22 0 0 1-2.2 2.2 2.22 2.22 0 0 1-2.2-2.2 2.22 2.22 0 0 1 2.2-2.2c1.2.1 2.2 1 2.2 2.2h0zm-3.5 0c0 .8.6 1.4 1.4 1.4s1.4-.6 1.4-1.4-.6-1.4-1.4-1.4h0c-.8 0-1.4.7-1.4 1.4h0zm3.5 58.1a2.22 2.22 0 0 1-2.2 2.2 2.22 2.22 0 0 1-2.2-2.2 2.22 2.22 0 0 1 2.2-2.2 2.22 2.22 0 0 1 2.2 2.2h0zm-3.5 0c0 .8.6 1.4 1.4 1.4s1.4-.6 1.4-1.4-.6-1.4-1.4-1.4h0c-.8 0-1.4.6-1.4 1.4h0zm10.5-65.4c0 1.2-1 2.1-2.2 2.1s-2.1-1-2.1-2.2 1-2.1 2.1-2.1c1.2.1 2.2 1 2.2 2.2zm-3.5 0c0 .8.6 1.4 1.4 1.4s1.4-.6 1.4-1.4-.6-1.4-1.4-1.4-1.4.7-1.4 1.4zm10.5-23.9c0 1.2-1 2.1-2.2 2.1s-2.2-1-2.1-2.2c0-1.2 1-2.1 2.1-2.1a2.22 2.22 0 0 1 2.2 2.2zm-3.5 0c0 .8.6 1.4 1.4 1.4s1.4-.6 1.4-1.4-.6-1.4-1.4-1.4-1.4.6-1.4 1.4zm4.5-67.2c0 1.2-1 2.1-2.2 2.1s-2.2-1-2.1-2.2c0-1.2 1-2.1 2.1-2.1a2.22 2.22 0 0 1 2.2 2.2zm-3.5 0c0 .8.6 1.4 1.4 1.3s1.4-.6 1.3-1.4c0-.8-.6-1.4-1.4-1.3-.7 0-1.3.6-1.3 1.4zm-2.4-21.3c0 1.2-1 2.1-2.2 2.1s-2.1-1-2.1-2.2 1-2.1 2.1-2.1a2.22 2.22 0 0 1 2.2 2.2zm-3.5 0c0 .7.6 1.4 1.3 1.4.8 0 1.4-.6 1.4-1.4s-.6-1.4-1.4-1.4c-.7 0-1.3.6-1.3 1.4z"/><path d="M23.7 128.2h.8v50.4h-.8zm5.8.5h.8v17.6h-.8zm6.8-6v36.2h-7V187H14.9v-.8h13.6v-28.1h7v-35.4zm7-4.7v52.6h-7v28.7h-7V212h-7.8v-7h-6.6v-.8h7.4v7h6.2v-12.7h7v-28.7h7V118zm13.6 28.8v.8h-7.4V118h.8v28.8zm-5.3 17.1h.8v28.9h-.8zm-8.3 11.6v31.2h-7V220h-.8v-14.1h7v-30.4zm-14.4 67.1v.8H14.5v-13.3h7v-12.3h.8v13.1h-7v11.7zm.4-25.6v17.2h-7v3.2h-.8v-3.9h7V217zm21 31.4V280h-.8v-30.8h-6.2v8.9h-7.8v-23h.8v22.2h6.2v-8.9zm-7 20.6v9h-7v6.1h7v8.6h-.8v-7.8h-7v-7.7h7V269zm-21-2.2v15.4h-7v20.6h-.8v-21.4h7v-13.8h-7v-19.2h.8v18.4zm7-4.4v12.1h-.8v-11.3h-7v-12.4h.8v11.6zm7 31.9v15.8h-.8v-15h-6.2v5.6h-7.8v-11.6h.8V300h6.2v-5.7zM56.5 118h.8v16.3h-.8zm7.8 57v15.3h-7v14.4h-7v16.1h-7v14.3h-.8v-15h7v-16.2h7v-14.4h7v-13.7h-7v-17.6h.8V175zm-49.4 18.2h14v.8h-14z"/><path d="M41.2 183.5h15.9v.8H41.2zm23.1 59v22.6h-7V287h-7v27.4h-.8v-28.2h7v-21.9h7v-21h-7v-18h.8v17.2zm-7.8 5.5h.8v11h-.8zm124.8 36.8c0 1.2-.9 2.2-2.1 2.2s-2.2-.9-2.2-2.1.9-2.2 2.1-2.2 2.2 1 2.2 2.1zm-3.5 0c0 .8.6 1.4 1.4 1.4s1.4-.6 1.4-1.4-.6-1.4-1.4-1.4c-.8.1-1.4.7-1.4 1.4zm5.3 11.2a2.22 2.22 0 0 1-2.2 2.2 2.22 2.22 0 0 1-2.2-2.2 2.22 2.22 0 0 1 2.2-2.2 2.22 2.22 0 0 1 2.2 2.2zm-3.5 0c0 .8.6 1.4 1.4 1.4s1.4-.6 1.4-1.4-.6-1.4-1.4-1.4h0c-.8 0-1.4.6-1.4 1.4h0zm3.5-20.4a2.22 2.22 0 0 1-2.2 2.2 2.22 2.22 0 0 1-2.2-2.2 2.22 2.22 0 0 1 2.2-2.2c1.2.1 2.2 1 2.2 2.2zm-3.5 0c0 .8.6 1.4 1.4 1.4s1.4-.6 1.4-1.4-.6-1.4-1.4-1.4h0c-.8 0-1.4.6-1.4 1.4h0zm10.5.3c0 1.2-1 2.1-2.2 2.1s-2.1-1-2.1-2.2 1-2.1 2.1-2.1a2.22 2.22 0 0 1 2.2 2.2zm-3.6 0c0 .8.6 1.4 1.4 1.4s1.4-.6 1.3-1.4c0-.8-.6-1.4-1.4-1.3-.7-.1-1.3.6-1.3 1.3zm3.6-32.2c0 1.2-1 2.1-2.2 2.1s-2.1-1-2.1-2.2 1-2.1 2.1-2.1a2.22 2.22 0 0 1 2.2 2.2h0zm-3.6 0c0 .8.6 1.4 1.4 1.4s1.4-.6 1.4-1.4-.6-1.4-1.4-1.4c-.7 0-1.4.6-1.4 1.4h0zm-5.2 8.6a2.22 2.22 0 0 1-2.2 2.2 2.22 2.22 0 0 1-2.2-2.2 2.22 2.22 0 0 1 2.2-2.2h0c1.2.1 2.2 1 2.2 2.2zm-3.5 0c.1.8.7 1.3 1.5 1.2.7-.1 1.2-.6 1.2-1.2.1-.8-.5-1.4-1.2-1.5s-1.4.5-1.5 1.2v.3zm21 0a2.22 2.22 0 0 1-2.2 2.2 2.22 2.22 0 0 1-2.2-2.2 2.22 2.22 0 0 1 2.2-2.2c1.3.1 2.2 1 2.2 2.2zm-3.5 0c0 .8.6 1.4 1.4 1.4s1.4-.6 1.4-1.4-.6-1.4-1.4-1.4c-.8.1-1.4.7-1.4 1.4zm1.8-57.1c0 1.2-1 2.1-2.2 2.1s-2.1-1-2.1-2.2 1-2.1 2.1-2.1c1.2.1 2.2 1 2.2 2.2zm-3.5 0c0 .8.6 1.4 1.4 1.4s1.4-.6 1.4-1.4-.6-1.4-1.4-1.4-1.4.7-1.4 1.4zm3.5 62.9c0 1.2-.9 2.2-2.1 2.2s-2.2-.9-2.2-2.1.9-2.2 2.1-2.2 2.2 1 2.2 2.1zm-3.6 0c0 .8.6 1.4 1.4 1.4s1.4-.6 1.4-1.3c-.1-.8-.7-1.3-1.5-1.3-.7 0-1.2.6-1.3 1.2zm10.6-47.7c0 1.2-1 2.1-2.2 2.1s-2.1-1-2.1-2.2 1-2.1 2.1-2.1a2.22 2.22 0 0 1 2.2 2.2zm-3.5 0c0 .8.6 1.4 1.4 1.4s1.4-.6 1.4-1.4-.6-1.4-1.4-1.4-1.4.6-1.4 1.4zm3.5-11.6c0 1.2-1 2.1-2.2 2.1s-2.2-1-2.1-2.2c0-1.2 1-2.1 2.1-2.1a2.22 2.22 0 0 1 2.2 2.2zm-3.5 0c0 .8.6 1.4 1.4 1.3s1.4-.6 1.3-1.4c0-.8-.6-1.4-1.4-1.3s-1.3.6-1.3 1.4zm-10.5-48.5c0 1.2-1 2.1-2.2 2.1s-2.1-1-2.1-2.2 1-2.1 2.1-2.1c1.2.1 2.2 1 2.2 2.2zm-3.6 0c0 .8.6 1.4 1.4 1.4s1.4-.6 1.4-1.4-.6-1.4-1.4-1.4c-.7.1-1.4.7-1.4 1.4h0zm-3.4 58.3a2.22 2.22 0 0 1-2.2 2.2 2.22 2.22 0 0 1-2.2-2.2 2.22 2.22 0 0 1 2.2-2.2 2.22 2.22 0 0 1 2.2 2.2zm-3.5 0c0 .8.6 1.4 1.4 1.4s1.4-.6 1.4-1.4-.6-1.4-1.4-1.4-1.4.6-1.4 1.4h0zm17.5-43.8a2.22 2.22 0 0 1-2.2 2.2 2.22 2.22 0 0 1-2.2-2.2 2.22 2.22 0 0 1 2.2-2.2c1.2.1 2.2 1.1 2.2 2.2zm-3.6 0c0 .8.6 1.4 1.4 1.4s1.4-.6 1.4-1.4-.6-1.4-1.4-1.4c-.7.1-1.4.7-1.4 1.4h0zm3.6-27.1a2.22 2.22 0 0 1-2.2 2.2 2.22 2.22 0 0 1-2.2-2.2 2.22 2.22 0 0 1 2.2-2.2 2.22 2.22 0 0 1 2.2 2.2h0zm-3.6 0c0 .8.6 1.4 1.4 1.4s1.4-.6 1.4-1.4-.6-1.4-1.4-1.4c-.7 0-1.4.6-1.4 1.4h0z"/><path d="M188.3 284.5v29.6h-.8v-28.9h-6.6v-.7zm-.8-39h.8v28.9h-.8zm14.8-33.4v14h-7v30.5h-.8v-31.2h7v-13.3zm0-38.1v23h-.8v-22.2h-6.2v8.9h-7.8v-31.6h.8v30.8h6.2V174z"/><use xlink:href="#d"/><path d="M180.5 297.8h.8v16.3h-.8z"/><use xlink:href="#e"/><path d="M180.9 251.9h14v.8h-14zm7.4-133.9v28.1h-7v21.8h-7v21h7v17.9h-.8v-17.2h-7v-22.5h7v-21.8h7V118z"/><path d="M178.4 166.9h.8v11h-.8zm-10.9 114.2h.8v33h-.8z"/><path d="M170.1 279.1c0 1.2-1 2.1-2.2 2.1s-2.1-1-2.1-2.2 1-2.1 2.1-2.1c1.2.1 2.2 1 2.2 2.2h0zm-3.6 0c0 .8.6 1.4 1.4 1.4s1.4-.6 1.4-1.4-.6-1.4-1.4-1.4-1.4.7-1.4 1.4zm5.3-51.6c0 1.2-1 2.1-2.2 2.1s-2.2-1-2.1-2.2c0-1.2 1-2.1 2.2-2.1 1.1.1 2.1 1 2.1 2.2zm-3.5 0c0 .7.6 1.3 1.3 1.4h.1c.8 0 1.4-.6 1.4-1.4s-.6-1.4-1.4-1.4-1.4.7-1.4 1.4zm-5.2 34.6a2.22 2.22 0 0 1-2.2 2.2 2.22 2.22 0 0 1-2.2-2.2c0-1.2 1-2.2 2.1-2.2 1.3.1 2.2 1 2.3 2.2zm-3.6 0c0 .8.6 1.4 1.4 1.4s1.4-.6 1.4-1.4-.6-1.4-1.4-1.4-1.4.7-1.4 1.4zm12.3-16.6c0 1.2-1 2.1-2.2 2.1s-2.1-1-2.1-2.2 1-2.1 2.2-2.1 2.1 1 2.1 2.2zm-3.5 0c0 .8.6 1.4 1.4 1.3.8 0 1.4-.6 1.3-1.4 0-.7-.6-1.3-1.3-1.3-.8 0-1.4.6-1.4 1.4h0zm-42 39.3c0 1.2-1 2.1-2.1 2.1s-2.1-1-2.1-2.1c0-1.2 1-2.1 2.1-2.1s2.1 1 2.1 2.1zm-3.5 0c0 .8.6 1.4 1.4 1.4s1.4-.6 1.4-1.4-.6-1.4-1.4-1.4c-.8.1-1.4.7-1.4 1.4zM128 296c0 1.2-1 2.1-2.2 2.1s-2.1-1-2.1-2.2 1-2.1 2.1-2.1c1.3 0 2.2 1 2.2 2.2zm-3.5 0c0 .8.6 1.4 1.4 1.4s1.4-.6 1.4-1.4-.6-1.4-1.4-1.4-1.4.6-1.4 1.4zm3.5-20.4c0 1.2-1 2.1-2.2 2.1s-2.1-1-2.1-2.1c0-1.2 1-2.2 2.1-2.2 1.3.1 2.2 1 2.2 2.2zm-3.5 0c0 .8.6 1.4 1.4 1.4s1.4-.6 1.4-1.4-.6-1.4-1.4-1.4-1.4.7-1.4 1.4zm10.5.3c0 1.2-1 2.1-2.2 2.1s-2.1-1-2.1-2.2 1-2.1 2.1-2.1c1.3 0 2.2 1 2.2 2.2zm-3.5 0c0 .7.6 1.4 1.3 1.4s1.4-.6 1.4-1.3v-.1c0-.8-.6-1.4-1.4-1.4-.7 0-1.3.6-1.3 1.4z"/><use xlink:href="#f"/><path d="M126.3 252.3c0 1.2-1 2.1-2.2 2.1s-2.1-1-2.1-2.2 1-2.1 2.1-2.1c1.2.1 2.2 1 2.2 2.2zm-3.5 0c.1.8.7 1.3 1.5 1.2.7-.1 1.2-.6 1.2-1.2.1-.8-.5-1.4-1.2-1.5s-1.4.5-1.5 1.2v.3zm21 0c0 1.2-1 2.1-2.2 2.1s-2.1-1-2.1-2.1c0-1.2 1-2.2 2.1-2.2 1.2.1 2.2 1 2.2 2.2zm-3.5 0c0 .8.6 1.4 1.4 1.4s1.4-.6 1.4-1.4-.6-1.4-1.4-1.4c-.8.1-1.4.7-1.4 1.4h0zm1.7-57.1c0 1.2-1 2.1-2.2 2.1s-2.1-1-2.1-2.2 1-2.1 2.2-2.1c1.2.1 2.1 1 2.1 2.2h0zm-3.5 0c0 .8.6 1.4 1.4 1.4s1.4-.6 1.4-1.4-.6-1.4-1.4-1.4h0c-.8 0-1.4.7-1.4 1.4zm3.5 62.9c0 1.2-1 2.2-2.1 2.2-1.2 0-2.2-1-2.2-2.1 0-1.2 1-2.2 2.1-2.2 1.3 0 2.2 1 2.2 2.1zm-3.5 0c0 .8.6 1.4 1.4 1.4s1.4-.6 1.4-1.4-.6-1.4-1.4-1.4c-.8.1-1.4.7-1.4 1.4zm10.5-47.7c0 1.2-1 2.1-2.2 2.1s-2.1-1-2.1-2.2 1-2.1 2.1-2.1c1.3 0 2.2 1 2.2 2.2zm-3.5 0c0 .8.6 1.4 1.4 1.4s1.4-.6 1.4-1.4c0-.7-.6-1.4-1.4-1.4s-1.4.6-1.4 1.4zm4.5-10.2c0 1.2-1 2.1-2.2 2.1s-2.1-1-2.1-2.2 1-2.1 2.1-2.1c1.3 0 2.2 1 2.2 2.2h0zm-3.5 0c0 .8.6 1.4 1.3 1.4.8 0 1.4-.6 1.4-1.3 0-.8-.6-1.4-1.3-1.4-.8-.1-1.4.5-1.4 1.3zM135 150.3c0 1.2-1 2.1-2.2 2.1s-2.1-1-2.1-2.2 1-2.1 2.1-2.1c1.3.1 2.2 1 2.2 2.2zm-3.5 0c0 .8.6 1.4 1.4 1.3s1.4-.6 1.3-1.4c0-.8-.6-1.4-1.4-1.3-.7.1-1.3.7-1.3 1.4z"/><use xlink:href="#g"/><path d="M142 164.8c0 1.2-1 2.1-2.2 2.1s-2.1-1-2.1-2.2 1-2.1 2.1-2.1c1.3.1 2.2 1 2.2 2.2zm-3.5 0c-.1.8.5 1.4 1.2 1.5s1.4-.5 1.5-1.2v-.2c.1-.8-.5-1.4-1.2-1.5s-1.4.5-1.5 1.2v.2zm3.5-27.1c0 1.2-1 2.1-2.2 2.1s-2.1-1-2.1-2.2 1-2.1 2.1-2.1c1.3 0 2.2 1 2.2 2.2h0zm-3.5 0c0 .8.6 1.4 1.4 1.4s1.4-.6 1.4-1.4-.6-1.4-1.4-1.4-1.4.6-1.4 1.4zm24.6 78.3a2.22 2.22 0 0 1-2.2 2.2 2.22 2.22 0 0 1-2.2-2.2c0-1.2 1-2.2 2.1-2.2 1.3.1 2.2 1.1 2.3 2.2zm-3.6 0c0 .8.6 1.4 1.4 1.4s1.4-.6 1.4-1.4-.6-1.4-1.4-1.4c-.8.1-1.4.7-1.4 1.4zm-5.2-26.9a2.22 2.22 0 0 1-2.2 2.2 2.22 2.22 0 0 1-2.2-2.2 2.22 2.22 0 0 1 2.2-2.2 2.22 2.22 0 0 1 2.2 2.2zm-3.5 0c0 .8.6 1.4 1.4 1.4s1.4-.6 1.4-1.4-.6-1.4-1.4-1.4h0c-.8 0-1.4.6-1.4 1.4zM163 179c0 1.2-1 2.1-2.2 2.1s-2.2-1-2.1-2.2c0-1.2 1-2.1 2.2-2.1s2.1 1 2.1 2.2zm-3.5 0c0 .8.6 1.4 1.4 1.4s1.4-.6 1.4-1.4-.6-1.4-1.4-1.4-1.4.6-1.4 1.4zm-3.5-23.1c0 1.2-1 2.1-2.2 2.1s-2.2-1-2.1-2.2c0-1.2 1-2.1 2.2-2.1 1.2.1 2.1 1 2.1 2.2zm-3.5 0c0 .8.6 1.4 1.4 1.3s1.4-.6 1.3-1.4c0-.7-.6-1.3-1.3-1.3-.8.1-1.4.7-1.4 1.4z"/><path d="M163 144.8c0 1.2-1 2.1-2.2 2.1s-2.2-1-2.1-2.2c0-1.2 1-2.1 2.2-2.1s2.1 1 2.1 2.2zm-3.5 0c-.1.8.5 1.4 1.2 1.5s1.4-.5 1.5-1.2v-.2c.1-.8-.5-1.4-1.2-1.5s-1.4.5-1.5 1.2v.2zm-10.5-25c0 1.2-1 2.1-2.2 2.1s-2.1-1-2.1-2.2 1-2.1 2.1-2.1c1.3.1 2.2 1 2.2 2.2zm-3.5 0c0 .8.6 1.4 1.4 1.4s1.4-.6 1.4-1.4c0-.7-.6-1.4-1.4-1.4-.8.1-1.4.7-1.4 1.4h0zm24.6 63.8c0 1.2-1 2.1-2.2 2.1s-2.1-1-2.1-2.2 1-2.1 2.1-2.1a2.22 2.22 0 0 1 2.2 2.2h0zm-3.6 0c0 .8.6 1.4 1.4 1.4s1.4-.6 1.4-1.4-.6-1.4-1.4-1.4-1.4.6-1.4 1.4zm3.6-56.1c0 1.2-1 2.1-2.2 2.1s-2.1-1-2.1-2.2 1-2.1 2.1-2.1c1.2.1 2.2 1.1 2.2 2.2zm-3.6 0c0 .8.6 1.4 1.4 1.4s1.4-.6 1.4-1.4-.6-1.4-1.4-1.4-1.4.7-1.4 1.4h0zm-.7 65.3c0 1.2-1 2.1-2.2 2.1s-2.1-1-2.1-2.2 1-2.1 2.2-2.1c1.1.1 2.1 1.1 2.1 2.2h0zm-3.5 0c0 .8.6 1.4 1.4 1.4s1.4-.6 1.4-1.4-.6-1.4-1.4-1.4h0c-.8.1-1.4.7-1.4 1.4h0zm-6.3 24c0 1.2-1 2.1-2.2 2.1s-2.2-1-2.1-2.2c0-1.2 1-2.1 2.2-2.1 1.2.1 2.1 1.1 2.1 2.2zm-3.5 0c0 .8.6 1.4 1.4 1.3s1.4-.6 1.3-1.4c0-.7-.6-1.3-1.3-1.3-.8.1-1.4.7-1.4 1.4zM156 288c0 1.2-1 2.2-2.1 2.2-1.2 0-2.2-1-2.2-2.1 0-1.2 1-2.2 2.1-2.2 1.3 0 2.2 1 2.2 2.1zm-3.5 0c0 .8.6 1.4 1.4 1.3s1.4-.6 1.3-1.4c0-.7-.6-1.3-1.3-1.3-.8.1-1.4.7-1.4 1.4zm8-24.4h.8v50.5h-.8z"/><path d="M153.5 289.8h.8v24.3h-.8zm14.4-44.7v.7h-13.6V274h-7v40.1h-.8v-40.9h7v-28.1zm0-18v.8h-7.4v-7.1h-6.2v12.8h-7v28.7h-7v51.8h-.8v-52.6h7v-28.7h7v-12.7h7.8v7zm-34.6 57.4v29.6h-.8v-28.9h-6.6v-.7zm-.8-39h.8v28.9h-.8zm14.8-33.4v14h-7v30.5h-.8v-31.2h7v-13.3zm23-24.4V201h-7v12.3h-.8v-13.1h7v-11.7h-22.4v-.8zm-6.1 6.9v4h-7v16.5h-.8v-17.3h7v-3.2z"/><path d="M148.3 175.4v23h-.8v-22.2h-6.3v8.9h-7.7v-31.6h.8v30.8h6.2v-8.9zm-1-28.2v7.6h-7v8.3h-.8v-9h7V148h-7v-8.6h.8v7.8zm21-19.9v21.4h-7v13.8h7v19.2h-.8v-18.5h-7v-15.3h7v-20.6zm-7 37.6v12.3h-.8v-11.5h-7v-12.2h.8v11.4zm0-33.5V143h-.8v-10.9h-6.2v5.7h-7.8V122h.8v15h6.2v-5.6zm-35.8 166.4h.8v16.3h-.8zM140.3 197v15h-7v16.2h-7v14.4h-7v13.7h7v17.6h-.8v-16.8h-7v-15.3h7v-14.4h7v-16.2h7V197zm31.5 41.5c0 1.2-1 2.1-2.2 2.1s-2.2-1-2.1-2.2c0-1.2 1-2.1 2.2-2.1 1.1 0 2.1 1 2.1 2.2zm-3.5 0c0 .7.6 1.4 1.3 1.4.8 0 1.4-.6 1.4-1.4s-.6-1.4-1.4-1.4c-.7 0-1.3.6-1.3 1.4h0zm-14 0a2.22 2.22 0 0 1-2.2 2.2 2.22 2.22 0 0 1-2.2-2.2 2.22 2.22 0 0 1 2.2-2.2 2.22 2.22 0 0 1 2.2 2.2zm-3.5 0c0 .7.6 1.4 1.3 1.4.8 0 1.4-.6 1.4-1.4s-.6-1.4-1.4-1.4c-.7 0-1.3.6-1.3 1.4h0z"/><path d="M153.9 238.1h14v.8h-14zm-79.5 52.8c0 1.2-1 2.1-2.2 2.1s-2.1-1-2.1-2.2 1-2.1 2.1-2.1c1.3.1 2.2 1 2.2 2.2h0zm-3.5 0c0 .7.6 1.3 1.3 1.4h.1c.8 0 1.4-.6 1.4-1.4s-.6-1.4-1.4-1.4-1.4.7-1.4 1.4zm-14 0a2.22 2.22 0 0 1-2.2 2.2 2.22 2.22 0 0 1-2.2-2.2 2.22 2.22 0 0 1 2.2-2.2c1.3.1 2.2 1 2.2 2.2h0zm-3.5 0c0 .7.6 1.4 1.3 1.4.8 0 1.4-.6 1.4-1.4s-.6-1.4-1.4-1.4-1.3.7-1.3 1.4z"/><path d="M56.6 290.5h14v.8h-14zm7 1.4c1.2 0 2.1 1 2.1 2.2s-1 2.1-2.2 2.1-2.1-1-2.1-2.1a2.22 2.22 0 0 1 2.2-2.2c-.1 0-.1 0 0 0zm0 3.5c.8 0 1.4-.6 1.4-1.4s-.6-1.4-1.4-1.4-1.4.6-1.4 1.4h0c0 .8.6 1.4 1.4 1.4-.1 0-.1 0 0 0zm0 14c1.2 0 2.1 1 2.1 2.2s-1 2.1-2.2 2.1-2.1-1-2.1-2.1a2.22 2.22 0 0 1 2.2-2.2c-.1 0-.1 0 0 0zm0 3.6c.8 0 1.4-.6 1.4-1.4s-.6-1.4-1.4-1.4-1.4.6-1.4 1.4c0 .7.6 1.4 1.4 1.4z"/><path d="M63.2 295.8h.8v14h-.8zm.4-104.1c1.2 0 2.1 1 2.1 2.2s-1 2.1-2.2 2.1-2.1-1-2.1-2.2 1-2.1 2.2-2.1c-.1 0-.1 0 0 0zm0 3.5c.8 0 1.4-.6 1.4-1.4s-.6-1.4-1.4-1.4-1.4.6-1.4 1.4c0 .7.6 1.4 1.4 1.4-.1 0-.1 0 0 0zm0 14a2.22 2.22 0 0 1 2.2 2.2 2.22 2.22 0 0 1-2.2 2.2c-1.2 0-2.2-1-2.2-2.1 0-1.4 1-2.3 2.2-2.3-.1 0-.1 0 0 0zm0 3.5c.7 0 1.4-.6 1.4-1.3 0-.8-.6-1.4-1.4-1.4s-1.4.6-1.4 1.4.6 1.3 1.4 1.3c-.1 0-.1 0 0 0z"/><path d="M63.2 195.5h.8v14h-.8zm110.3 4c1.2 0 2.1 1 2.1 2.2s-1 2.2-2.2 2.1c-1.2 0-2.1-1-2.1-2.2.1-1.2 1-2.1 2.2-2.1zm0 3.5c.8 0 1.4-.6 1.4-1.3 0-.8-.6-1.4-1.4-1.4-.8.1-1.3.7-1.2 1.5 0 .6.6 1.1 1.2 1.2zm0 14c1.2 0 2.1 1 2.1 2.2s-1 2.1-2.2 2.1-2.1-1-2.1-2.1c.1-1.3 1-2.2 2.2-2.2h0zm0 3.5c.7 0 1.4-.6 1.4-1.3 0-.8-.6-1.4-1.4-1.4s-1.4.6-1.4 1.4c.1.7.7 1.3 1.4 1.3z"/><path d="M173.1 203.4h.8v14h-.8zm22.2 82.2c1.2.1 2.1 1.1 2 2.3-.1 1.1-.9 1.9-2 2-1.2.1-2.2-.8-2.3-2s.8-2.2 2-2.3h.3zm0 3.5c.7 0 1.4-.6 1.4-1.3 0-.8-.6-1.4-1.4-1.4s-1.4.6-1.4 1.4.6 1.3 1.4 1.3zm0 14c1.2 0 2.1 1 2.1 2.2s-1 2.1-2.2 2.1-2.1-1-2.1-2.1c.1-1.2 1-2.2 2.2-2.2zm0 3.5c.8 0 1.4-.6 1.4-1.4s-.6-1.4-1.4-1.4-1.4.6-1.4 1.4.7 1.4 1.4 1.4z"/><path d="M194.9 289.5h.8v14h-.8zm-74.3-167.9c1.2 0 2.1 1 2.1 2.2s-1 2.2-2.2 2.1c-1.2 0-2.1-1-2.1-2.2.1-1.1 1.1-2.1 2.2-2.1zm0 3.5c.8 0 1.4-.6 1.4-1.4s-.6-1.4-1.4-1.4-1.4.6-1.4 1.4h0c.1.8.7 1.4 1.4 1.4zm0 14c1.2 0 2.1 1 2.1 2.2s-1 2.1-2.2 2.1-2.1-1-2.1-2.1c.1-1.2 1-2.2 2.2-2.2zm0 3.5c.8 0 1.4-.6 1.4-1.4s-.6-1.4-1.4-1.4-1.4.6-1.4 1.4c.1.8.7 1.4 1.4 1.4h0z"/><path d="M120.3 125.5h.8v14h-.8zm56.7-3.9c1.2 0 2.1 1 2.1 2.2s-1 2.2-2.2 2.1c-1.2 0-2.1-1-2.1-2.2 0-1.1 1-2.1 2.2-2.1zm0 3.5c.8 0 1.4-.6 1.4-1.4s-.6-1.4-1.4-1.4-1.4.6-1.4 1.4h0c0 .8.6 1.4 1.4 1.4-.1 0-.1 0 0 0zm0 14c1.2 0 2.1 1 2.1 2.2s-1 2.1-2.2 2.1-2.1-1-2.1-2.1a2.22 2.22 0 0 1 2.2-2.2h0zm0 3.5c.8 0 1.4-.6 1.4-1.4s-.6-1.4-1.4-1.4-1.4.6-1.4 1.4.6 1.4 1.4 1.4c-.1 0 0 0 0 0h0z"/><path d="M176.6 125.5h.8v14h-.8zm24.4-3.9c1.2 0 2.1 1 2.1 2.2s-1 2.2-2.2 2.1c-1.2 0-2.1-1-2.1-2.2 0-1.1 1-2.1 2.2-2.1zm0 3.5c.8 0 1.4-.6 1.4-1.4s-.6-1.4-1.4-1.4-1.4.6-1.4 1.4h0c0 .8.6 1.4 1.4 1.4zm0 14c1.2 0 2.1 1 2.1 2.2s-1 2.1-2.2 2.1-2.1-1-2.1-2.1a2.22 2.22 0 0 1 2.2-2.2zm0 3.5c.8 0 1.4-.6 1.4-1.4s-.6-1.4-1.4-1.4-1.4.6-1.4 1.4.6 1.4 1.4 1.4z"/><path d="M200.6 125.5h.8v14h-.8zm.4 135.7c1.2 0 2.1 1 2.1 2.2s-1 2.1-2.2 2.1-2.1-1-2.1-2.1c0-1.3 1-2.2 2.2-2.2zm0 3.5c.8 0 1.4-.6 1.4-1.4s-.6-1.4-1.4-1.4-1.4.6-1.4 1.4h0c0 .8.6 1.4 1.4 1.4zm0 14c1.2 0 2.1 1 2.1 2.2s-1 2.1-2.2 2.1-2.1-1-2.1-2.1c0-1.3 1-2.2 2.2-2.2zm0 3.5c.8 0 1.4-.6 1.4-1.4s-.6-1.4-1.4-1.4-1.4.6-1.4 1.4.6 1.4 1.4 1.4z"/><path d="M200.6 265.1h.8v14h-.8zm-82.1-54.3c1.2 0 2.1 1 2.1 2.2s-1 2.2-2.2 2.1c-1.2 0-2.1-1-2.1-2.2.1-1.1 1-2.1 2.2-2.1zm0 3.5c.7 0 1.4-.6 1.4-1.3 0-.8-.6-1.4-1.4-1.4s-1.4.6-1.4 1.4c0 .7.6 1.3 1.4 1.3h0zm0 14c1.2 0 2.1 1 2.1 2.2s-1 2.2-2.2 2.1c-1.2 0-2.1-1-2.1-2.1a2.22 2.22 0 0 1 2.2-2.2zm0 3.6c.8 0 1.4-.6 1.4-1.3 0-.8-.6-1.4-1.4-1.4s-1.4.6-1.4 1.4c0 .6.6 1.3 1.4 1.3h0z"/><path d="M118.1 214.7h.8v14h-.8zm51.6 36.5c1.2 0 2.1 1 2.1 2.2s-1 2.1-2.2 2.1-2.1-1-2.1-2.2c0-1.1 1-2.1 2.2-2.1-.1 0 0 0 0 0zm0 3.5c.7 0 1.4-.6 1.4-1.3 0-.8-.6-1.4-1.4-1.4s-1.4.6-1.4 1.4.6 1.3 1.4 1.3zm0 14c1.2 0 2.1 1 2.1 2.2s-1 2.2-2.2 2.1c-1.2 0-2.1-1-2.1-2.1a2.22 2.22 0 0 1 2.2-2.2zm0 3.5c.8 0 1.4-.6 1.4-1.4s-.6-1.4-1.4-1.4-1.4.6-1.4 1.4.6 1.4 1.4 1.4z"/><path d="M169.3 255.1h.8v14h-.8zm-43.4-3.2h14v.8h-14zm7.4-131.3v28.1h-7v21.8h-7v20.9h7v18h-.8v-17.2h-7v-22.5h7v-21.8h7v-27.3zm-7.8 52.5h.8v11h-.8zM112.6 118h.8v33h-.8z"/><use xlink:href="#h"/><path d="M116.8 204.6c0 1.2-1 2.1-2.2 2.1s-2.2-1-2.1-2.2c0-1.2 1-2.1 2.2-2.1s2.1 1 2.1 2.2zm-3.5 0c0 .8.6 1.4 1.4 1.4s1.4-.6 1.4-1.4-.6-1.4-1.4-1.4h0c-.7 0-1.4.6-1.4 1.4z"/><use xlink:href="#i"/><path d="M116.8 186.6c0 1.2-1 2.2-2.1 2.2-1.2 0-2.2-1-2.2-2.1 0-1.2 1-2.2 2.1-2.2 1.3 0 2.2 1 2.2 2.1h0zm-3.5 0c0 .8.6 1.4 1.4 1.4s1.4-.6 1.4-1.4-.6-1.4-1.4-1.4c-.7.1-1.4.7-1.4 1.4zm3.5 7c0 1.2-1 2.2-2.1 2.2-1.2 0-2.2-1-2.2-2.1 0-1.2 1-2.2 2.1-2.2 1.3 0 2.2.9 2.2 2.1zm-3.5 0c0 .8.6 1.4 1.4 1.4s1.4-.6 1.4-1.4-.6-1.4-1.4-1.4c-.7.1-1.4.7-1.4 1.4z"/><use xlink:href="#j"/><path d="M71.3 147.2c0 1.2-1 2.1-2.2 2.1s-2.1-1-2.1-2.2 1-2.1 2.1-2.1c1.3.1 2.2 1 2.2 2.2h0zm-3.5 0c0 .8.6 1.4 1.4 1.3.8 0 1.4-.6 1.3-1.4 0-.8-.6-1.4-1.4-1.3-.7 0-1.3.6-1.3 1.4h0zm5.3-11.1c0 1.2-1 2.1-2.2 2.1s-2.1-1-2.1-2.2 1-2.1 2.1-2.1a2.22 2.22 0 0 1 2.2 2.2h0zm-3.5 0c0 .8.6 1.4 1.4 1.4s1.4-.6 1.4-1.4-.6-1.4-1.4-1.4h0c-.8 0-1.4.6-1.4 1.4zm3.5 20.4c0 1.2-1 2.2-2.1 2.2-1.2 0-2.2-1-2.2-2.1 0-1.2 1-2.2 2.1-2.2 1.2-.1 2.2.9 2.2 2.1zm-3.5 0c0 .8.6 1.4 1.4 1.4s1.4-.6 1.4-1.4-.6-1.4-1.4-1.4-1.4.6-1.4 1.4zm10.5-.3c0 1.2-1 2.2-2.1 2.2-1.2 0-2.2-1-2.2-2.1 0-1.2 1-2.2 2.1-2.2 1.2 0 2.2.9 2.2 2.1zm-3.5 0c0 .8.6 1.4 1.4 1.4s1.4-.6 1.4-1.4-.6-1.4-1.4-1.4-1.4.6-1.4 1.4zm3.5 41.5c0 1.2-1 2.1-2.2 2.1s-2.1-1-2.1-2.2 1-2.1 2.1-2.1c1.2.1 2.2 1.1 2.2 2.2h0zm-3.5 0c0 .8.6 1.4 1.4 1.4s1.4-.6 1.4-1.4-.6-1.4-1.4-1.4c-.8.1-1.4.7-1.4 1.4zm-5.3-17.9c0 1.2-1 2.1-2.2 2.1s-2.1-1-2.1-2.2 1-2.1 2.1-2.1c1.3 0 2.2 1 2.2 2.2h0zm-3.5 0c0 .8.6 1.4 1.4 1.4s1.4-.6 1.4-1.4-.6-1.4-1.4-1.4-1.4.6-1.4 1.4c0-.1 0 0 0 0h0zm21 0c0 1.2-1 2.2-2.1 2.2-1.2 0-2.2-1-2.2-2.1 0-1.2 1-2.2 2.1-2.2 1.3-.1 2.2.9 2.2 2.1zm-3.5 0c0 .8.6 1.4 1.4 1.4s1.4-.6 1.4-1.4c0-.7-.6-1.3-1.3-1.4h-.1c-.8 0-1.4.6-1.4 1.4zm1.8 57c0 1.2-1 2.1-2.2 2.1s-2.1-1-2.1-2.2 1-2.1 2.2-2.1c1.1.1 2.1 1 2.1 2.2zm-3.5 0c0 .8.6 1.4 1.4 1.4s1.4-.6 1.4-1.4-.6-1.4-1.4-1.4c-.8.1-1.4.7-1.4 1.4zm3.5-62.9c0 1.2-1 2.1-2.2 2.1s-2.1-1-2.1-2.2 1-2.1 2.1-2.1c1.2.1 2.2 1.1 2.2 2.2zm-3.5 0c0 .8.6 1.4 1.4 1.4s1.4-.6 1.4-1.4-.6-1.4-1.4-1.4c-.8.1-1.4.7-1.4 1.4zm10.5 47.8c0 1.2-1 2.1-2.2 2.1s-2.2-1-2.1-2.2c0-1.2 1-2.1 2.2-2.1 1.1.1 2.1 1 2.1 2.2zm-3.5 0c0 .8.6 1.4 1.4 1.4s1.4-.6 1.4-1.4-.6-1.4-1.4-1.4h0c-.8.1-1.4.7-1.4 1.4zm3.5 11.6c0 1.2-1 2.1-2.2 2.1s-2.2-1-2.1-2.2c0-1.2 1-2.1 2.2-2.1 1.1.1 2.1 1 2.1 2.2zm-3.5 0c0 .8.6 1.4 1.4 1.4s1.4-.6 1.4-1.4-.7-1.3-1.4-1.3c-.8 0-1.4.6-1.4 1.3zm-10.5 48.5c0 1.2-1 2.1-2.2 2.1s-2.1-1-2.1-2.2 1-2.1 2.1-2.1a2.22 2.22 0 0 1 2.2 2.2zm-3.5 0c0 .8.6 1.4 1.4 1.4s1.4-.6 1.4-1.4-.6-1.4-1.4-1.4-1.4.6-1.4 1.4zm-3.5-58.3c0 1.2-1 2.1-2.2 2.1s-2.1-1-2.1-2.2 1-2.1 2.1-2.1a2.22 2.22 0 0 1 2.2 2.2h0zm-3.5 0c0 .8.6 1.4 1.4 1.4s1.4-.6 1.4-1.4-.6-1.4-1.4-1.4h0c-.8 0-1.4.6-1.4 1.4zm17.5 43.7c0 1.2-1 2.1-2.2 2.1s-2.1-1-2.1-2.2 1-2.1 2.1-2.1c1.2.1 2.2 1 2.2 2.2h0zm-3.5 0c0 .8.6 1.4 1.4 1.4s1.4-.6 1.4-1.4-.6-1.4-1.4-1.4-1.4.7-1.4 1.4zm3.5 27.2c0 1.2-1 2.1-2.2 2.1s-2.1-1-2.1-2.2 1-2.1 2.1-2.1c1.2.1 2.2 1 2.2 2.2zm-3.5 0c0 .8.6 1.4 1.4 1.4s1.4-.6 1.4-1.4-.6-1.4-1.4-1.4c-.8.1-1.4.7-1.4 1.4zm24.5-78.4c0 1.2-1 2.1-2.2 2.1s-2.1-1-2.1-2.2 1-2.1 2.1-2.1c1.2.1 2.2 1.1 2.2 2.2h0zm-3.5 0c0 .8.6 1.4 1.4 1.4s1.4-.6 1.4-1.4-.6-1.4-1.4-1.4h0c-.8.1-1.4.7-1.4 1.4zm-5.3 27c0 1.2-1 2.1-2.2 2.1s-2.1-1-2.1-2.2 1-2.1 2.1-2.1c1.3.1 2.2 1 2.2 2.2zm-3.5 0c0 .8.6 1.4 1.4 1.4s1.4-.6 1.4-1.4-.6-1.4-1.4-1.4-1.4.6-1.4 1.4h0z"/><use xlink:href="#k"/><path d="M101.1 276.2c0 1.2-1 2.1-2.2 2.1s-2.1-1-2.1-2.2 1-2.1 2.2-2.1 2.1 1 2.1 2.2zm-3.5 0c-.1.8.5 1.4 1.2 1.5s1.4-.5 1.5-1.2v-.2c.1-.8-.5-1.4-1.2-1.5s-1.4.5-1.5 1.2v.2zm10.5 11.1c0 1.2-1 2.1-2.2 2.1s-2.1-1-2.1-2.2 1-2.1 2.2-2.1 2.1 1 2.1 2.2zm-3.5 0c0 .8.6 1.4 1.4 1.4s1.4-.6 1.4-1.4-.6-1.4-1.4-1.4h0c-.8 0-1.4.6-1.4 1.4zm-10.5 25c0 1.2-1 2.1-2.2 2.1s-2.2-1-2.1-2.2c0-1.2 1-2.1 2.2-2.1 1.1.1 2.1 1 2.1 2.2zm-3.5 0c0 .8.6 1.4 1.4 1.4s1.4-.6 1.4-1.4-.6-1.4-1.4-1.4h0c-.8 0-1.4.7-1.4 1.4zm24.5-65.8c0 1.2-1 2.1-2.2 2.1s-2.1-1-2.1-2.2 1-2.1 2.1-2.1c1.2.1 2.2 1 2.2 2.2h0zm-3.5 0c0 .8.6 1.4 1.4 1.4s1.4-.6 1.4-1.4-.6-1.4-1.4-1.4h0c-.8 0-1.4.7-1.4 1.4zm3.5 58.1c0 1.2-1 2.1-2.2 2.1s-2.1-1-2.1-2.2 1-2.1 2.1-2.1a2.22 2.22 0 0 1 2.2 2.2h0zm-3.5 0c0 .8.6 1.4 1.4 1.4s1.4-.6 1.4-1.4-.6-1.4-1.4-1.4h0c-.8 0-1.4.6-1.4 1.4zm-3.5-65.4c0 1.2-1 2.1-2.2 2.1s-2.2-1-2.1-2.2c0-1.2 1-2.1 2.2-2.1 1.1.1 2.1 1 2.1 2.2zm-3.5 0c0 .8.6 1.4 1.4 1.4s1.4-.6 1.4-1.4-.6-1.4-1.4-1.4-1.4.7-1.4 1.4zm-3.5-23.9c0 1.2-1 2.1-2.2 2.1s-2.2-1-2.1-2.2c0-1.2 1-2.1 2.2-2.1 1.1 0 2.1 1 2.1 2.2zm-3.5 0c0 .8.6 1.4 1.4 1.4s1.4-.6 1.4-1.4-.6-1.4-1.4-1.4h0c-.8 0-1.4.6-1.4 1.4zm3.5-71.3c0 1.2-1 2.1-2.2 2.1s-2.2-1-2.1-2.2c0-1.2 1-2.1 2.2-2.1 1.1.1 2.1 1.1 2.1 2.2zm-3.5 0c0 .8.6 1.4 1.4 1.4s1.4-.6 1.4-1.4-.6-1.4-1.4-1.4h0c-.8.1-1.4.7-1.4 1.4zm8-26h.8v50.5h-.8z"/><path d="M98.6 118h.8v24.3h-.8zm14.3 68.2v.8H98.6v-28.1h-7V118h.7v40.1h7v28.1zm0 18v.8h-6.6v7h-7.7v-12.7h-7v-28.7h-7.1V118h.8v51.8h7v28.7h7v12.7h6.3v-7zM78.3 118v29.6h-7.4v-.8h6.6V118zm-.8 49.1h.8V196h-.8zm14.8 38.8V220h-.7v-13.3h-7.1v-31.2h.8v30.4zm21 24.2v13.3H98.9v-.8h13.7v-11.7h-7v-13.1h.7v12.3zm-7 3.4v3.9h-.7v-3.2h-7V217h.7v16.5zm-14 1.6v23h-7.8v-8.9h-6.2V280h-.8v-31.6h7.8v8.9h6.3v-22.2zm0 42.1v7.7h-7v7.8h-.7v-8.6h7V278h-7.1v-9h.8v8.2zm21-28.8v19.2h-7v13.8h7v21.4h-.7v-20.6h-7v-15.4h7v-18.4zm-7 2.4v12.4h-7v11.3h-.7v-12.1h7v-11.6zm0 38.3v11.6h-7.7v-5.6h-6.3v15h-.7v-15.8h7.7v5.7h6.3v-10.9zM70.5 118h.8v16.3h-.8zm14.8 102.1v15h-.7v-14.3h-7.1v-16.1h-7v-14.4h-7V175h7v-16.8h.8v17.6h-7v13.7h7v14.4h7v16.2zm13.6-26.9h14v.8h-14z"/><path d="M70.9 179.4h14v.8h-14zm7.4 106.7v28.2h-.8v-27.4h-7v-21.8h-7v-22.6h7v-17.2h.8v18h-7v21h7v21.8zM70.5 248h.8v11h-.8zm-11.4 13.2c0 1.2-1 2.1-2.2 2.1s-2.1-1-2.1-2.2 1-2.1 2.1-2.1a2.22 2.22 0 0 1 2.2 2.2h0zm-3.5 0c0 .8.6 1.4 1.4 1.3.8 0 1.4-.6 1.3-1.4 0-.7-.6-1.3-1.3-1.3-.8 0-1.4.6-1.4 1.4z"/><path d="M73.1 261.2c0 1.2-1 2.1-2.2 2.1s-2.1-1-2.1-2.2 1-2.1 2.2-2.1c1.1 0 2.1 1 2.1 2.2h0zm-3.5 0c0 .8.6 1.4 1.4 1.4s1.4-.6 1.4-1.4c0-.7-.6-1.4-1.4-1.4s-1.4.6-1.4 1.4zm3.5-15.4c-.1 1.2-1.1 2.1-2.3 2-1.1-.1-1.9-.9-2-2-.1-1.2.8-2.2 2-2.3s2.2.8 2.3 2v.3zm-3.5 0c0 .8.6 1.4 1.4 1.4s1.4-.6 1.4-1.4c0-.7-.6-1.4-1.4-1.4-.8.1-1.4.7-1.4 1.4zm58.4-60c0 1.2-1 2.1-2.2 2.1s-2.1-1-2.1-2.2 1-2.1 2.1-2.1c1.3.1 2.2 1.1 2.2 2.2h0zm-3.5 0c0 .8.6 1.4 1.4 1.4s1.4-.6 1.4-1.4-.6-1.4-1.4-1.4c-.8.1-1.4.7-1.4 1.4zm3.5-14.9c0 1.2-1 2.1-2.2 2.1s-2.1-1-2.1-2.2 1-2.1 2.1-2.1c1.3.1 2.2 1 2.2 2.2zm-3.5 0c0 .8.6 1.4 1.4 1.4s1.4-.6 1.4-1.4-.6-1.4-1.4-1.4c-.8.1-1.4.7-1.4 1.4zm56.4-6.1c0 1.2-1 2.1-2.2 2.1s-2.1-1-2.1-2.2 1-2.1 2.2-2.1 2.1 1 2.1 2.2h0zm-3.5 0c0 .8.6 1.4 1.4 1.3.8 0 1.4-.6 1.3-1.4 0-.7-.6-1.3-1.3-1.3-.8 0-1.4.6-1.4 1.4zm3.5 14.9c-.1 1.2-1.1 2.1-2.3 2-1.1-.1-1.9-.9-2-2-.1-1.2.8-2.2 2-2.3s2.2.8 2.3 2v.3zm-3.5 0c0 .8.6 1.4 1.4 1.3.8 0 1.4-.6 1.3-1.4 0-.7-.6-1.3-1.3-1.3-.8 0-1.4.6-1.4 1.4zM59.1 245.8c0 1.2-1 2.1-2.1 2.1s-2.1-1-2.1-2.1 1-2.1 2.1-2.1 2.1 1 2.1 2.1zm-3.5 0c0 .8.6 1.4 1.4 1.3.8 0 1.4-.6 1.3-1.4 0-.7-.6-1.3-1.3-1.3-.8.1-1.4.7-1.4 1.4zM339.3 34.4h33v.8h-33z"/><path d="M337.3 37a2.22 2.22 0 0 1-2.2-2.2 2.22 2.22 0 0 1 2.2-2.2 2.22 2.22 0 0 1 2.2 2.2 2.22 2.22 0 0 1-2.2 2.2zm0-3.6c-.8 0-1.4.6-1.4 1.4s.6 1.4 1.4 1.4 1.4-.6 1.4-1.4h0c0-.7-.6-1.4-1.4-1.4h0 0z"/><use xlink:href="#l"/><path d="M320.3 44c-1.2 0-2.2-.9-2.2-2.1s.9-2.2 2.1-2.2 2.2.9 2.2 2.1c.1 1.2-.9 2.2-2.1 2.2zm0-3.6c-.8 0-1.4.6-1.4 1.4 0 .7.6 1.4 1.3 1.4.8 0 1.4-.6 1.4-1.4.1-.7-.5-1.3-1.3-1.4zm-16.6-5.2c-1.2 0-2.1-1-2.1-2.2s1-2.1 2.2-2.1 2.1 1 2.1 2.1-1 2.2-2.2 2.2h0zm0-3.5c-.8 0-1.4.6-1.4 1.4s.6 1.4 1.4 1.4 1.4-.6 1.4-1.4c-.1-.8-.7-1.4-1.4-1.4zm-7 3.5c-1.2 0-2.1-1-2.1-2.2s1-2.1 2.2-2.1 2.1 1 2.1 2.1c-.1 1.2-1 2.2-2.2 2.2zm0-3.5c-.8 0-1.4.6-1.4 1.4s.6 1.4 1.4 1.4 1.4-.6 1.4-1.4c-.1-.8-.7-1.4-1.4-1.4zm0 21c-1.2 0-2.1-1-2.1-2.2s1-2.1 2.2-2.1 2.1 1 2.1 2.1c-.1 1.3-1 2.2-2.2 2.2zm0-3.5c-.8 0-1.4.6-1.4 1.4s.6 1.4 1.4 1.4 1.4-.6 1.4-1.4h0c-.1-.8-.7-1.4-1.4-1.4h0 0zm46.4 31.5c-1.2 0-2.1-1-2.1-2.2s1-2.1 2.2-2.1 2.1 1 2.1 2.2c-.1 1.2-1 2.1-2.2 2.1h0zm0-3.5c-.7 0-1.4.6-1.4 1.3 0 .8.6 1.4 1.4 1.4s1.4-.6 1.4-1.4c-.1-.7-.7-1.3-1.4-1.3h0zm11.1 1.8c-1.2 0-2.2-.9-2.2-2.1s.9-2.2 2.1-2.2 2.2.9 2.2 2.1-.9 2.2-2.1 2.2zm0-3.5c-.7 0-1.4.6-1.4 1.3 0 .8.6 1.4 1.4 1.4s1.4-.6 1.4-1.4c0-.7-.6-1.3-1.4-1.3h0zM333.8 79c-1.2 0-2.2-.9-2.2-2.1s.9-2.2 2.1-2.2 2.2.9 2.2 2.1-.9 2.2-2.1 2.2zm0-3.5c-.7 0-1.4.6-1.4 1.3-.1.8.5 1.4 1.2 1.5.8.1 1.4-.5 1.5-1.2v-.2c0-.8-.6-1.4-1.3-1.4zm.3-3.5c-1.2 0-2.2-1-2.2-2.1 0-1.2 1-2.2 2.1-2.2 1.2 0 2.2 1 2.2 2.1 0 1.2-.9 2.2-2.1 2.2zm0-3.5c-.8 0-1.4.6-1.4 1.4s.6 1.4 1.4 1.4 1.4-.6 1.4-1.4-.6-1.4-1.4-1.4zM301.9 72c-1.2-.1-2.1-1.1-2-2.3.1-1.1.9-1.9 2-2 1.2-.1 2.2.8 2.3 2s-.8 2.2-2 2.3h-.3zm0-3.5c-.8 0-1.4.6-1.4 1.4s.6 1.4 1.4 1.4c.7 0 1.4-.6 1.4-1.4s-.6-1.4-1.4-1.4zm8.6 12.2c-1.2 0-2.1-1-2.1-2.2s1-2.1 2.2-2.1 2.1 1 2.1 2.2-1 2.1-2.2 2.1h0zm0-3.5c-.8 0-1.4.6-1.3 1.4s.6 1.4 1.4 1.3c.7 0 1.3-.6 1.3-1.3 0-.8-.6-1.4-1.4-1.4zm0-14a2.22 2.22 0 0 1-2.2-2.2 2.22 2.22 0 0 1 2.2-2.2 2.22 2.22 0 0 1 2.2 2.2c0 1.3-1 2.2-2.2 2.2h0zm0-3.5c-.8 0-1.4.6-1.4 1.4s.6 1.4 1.4 1.4 1.4-.6 1.4-1.4-.6-1.4-1.4-1.4h0zM253.4 65c-1.2 0-2.1-1-2.1-2.2s1-2.1 2.2-2.1 2.1 1 2.1 2.2c0 1.1-1 2.1-2.2 2.1zm0-3.5c-.8-.1-1.4.5-1.5 1.2-.1.8.5 1.4 1.2 1.5h.2c.8.1 1.4-.5 1.5-1.2.1-.8-.5-1.4-1.2-1.5h-.2zm63 3.5c-1.2 0-2.1-1-2.1-2.2s1-2.1 2.2-2.1 2.1 1 2.1 2.2c-.1 1.1-1.1 2.1-2.2 2.1zm0-3.5c-.8 0-1.3.7-1.3 1.4 0 .8.7 1.3 1.4 1.3s1.3-.6 1.3-1.4c0-.7-.6-1.3-1.4-1.3zM268.6 58c-1.2 0-2.1-1-2.1-2.2s1-2.1 2.2-2.1 2.1 1 2.1 2.2c0 1.1-1 2.1-2.2 2.1zm0-3.5c-.8 0-1.4.6-1.4 1.3 0 .8.6 1.4 1.4 1.4s1.4-.6 1.4-1.4c-.1-.7-.7-1.3-1.4-1.3h0z"/><use xlink:href="#m"/><path d="M208.5 72c-1.2 0-2.1-1-2.1-2.2s1-2.1 2.2-2.1 2.1 1 2.1 2.2c0 1.1-1 2.1-2.2 2.1zm0-3.5c-.8 0-1.4.6-1.4 1.4s.6 1.4 1.4 1.4 1.4-.6 1.4-1.4-.6-1.4-1.4-1.4zM266.8 79c-1.2 0-2.2-1-2.2-2.1a2.22 2.22 0 0 1 2.2-2.2c1.2 0 2.2 1 2.2 2.1-.1 1.2-1 2.2-2.2 2.2zm0-3.5c-.8 0-1.4.6-1.4 1.4s.6 1.4 1.4 1.4 1.4-.6 1.4-1.4-.6-1.4-1.4-1.4zM223.1 65c-1.2 0-2.1-1-2.1-2.2s1-2.1 2.2-2.1 2.1 1 2.1 2.2c-.1 1.1-1 2.1-2.2 2.1h0zm0-3.5c-.8 0-1.4.6-1.4 1.4s.6 1.4 1.4 1.4 1.4-.6 1.4-1.4c-.1-.8-.7-1.4-1.4-1.4zM187.5 65c-1.2.1-2.2-.8-2.3-2s.8-2.2 2-2.3h.3c1.2-.1 2.2.8 2.3 2s-.8 2.2-2 2.3h-.3zm0-3.5c-.8 0-1.4.6-1.4 1.4.1.8.7 1.3 1.5 1.3.7-.1 1.2-.6 1.3-1.3 0-.8-.7-1.4-1.4-1.4zM274.3 44c-1.2 0-2.2-1-2.2-2.1a2.22 2.22 0 0 1 2.2-2.2c1.2 0 2.2 1 2.2 2.1-.1 1.2-1.1 2.2-2.2 2.2zm0-3.6c-.8 0-1.4.6-1.4 1.4s.6 1.4 1.4 1.4 1.4-.6 1.4-1.4h0c-.1-.7-.7-1.4-1.4-1.4h0 0zm-27 12.3c-1.2 0-2.1-1-2.1-2.2s1-2.1 2.2-2.1 2.1 1 2.1 2.1c0 1.3-1 2.2-2.2 2.2zm0-3.5c-.8 0-1.4.6-1.4 1.4s.6 1.4 1.4 1.4 1.4-.6 1.4-1.4h0c0-.8-.7-1.4-1.4-1.4h0 0zm-6.1-5.2c-1.2.1-2.2-.8-2.3-2s.8-2.2 2-2.3h.3c1.2-.1 2.2.8 2.3 2s-.8 2.2-2 2.3h-.3zm0-3.5c-.8 0-1.4.6-1.4 1.3 0 .8.6 1.4 1.4 1.4s1.4-.6 1.4-1.4c0-.7-.6-1.3-1.4-1.3h0zM208.1 51c-1.2 0-2.1-1-2.1-2.2s1-2.1 2.2-2.1 2.1 1 2.1 2.1a2.22 2.22 0 0 1-2.2 2.2zm0-3.5c-.7 0-1.4.6-1.4 1.3-.1.8.5 1.4 1.2 1.5.8.1 1.4-.5 1.5-1.2v-.2c.1-.8-.5-1.4-1.3-1.4h0zM178 58c-1.2 0-2.1-1-2.1-2.2s1-2.1 2.2-2.1 2.1 1 2.1 2.1c-.1 1.2-1 2.2-2.2 2.2zm0-3.5c-.8 0-1.4.6-1.4 1.4s.6 1.4 1.4 1.4 1.4-.6 1.4-1.4-.7-1.4-1.4-1.4h0z"/><use xlink:href="#n"/><path d="M185.8 37c-1.2 0-2.2-1-2.2-2.1a2.22 2.22 0 0 1 2.2-2.2c1.2 0 2.2 1 2.2 2.1-.1 1.2-1 2.2-2.2 2.2zm0-3.6c-.8 0-1.4.6-1.4 1.4s.6 1.4 1.4 1.4 1.4-.6 1.4-1.4h0c-.1-.7-.7-1.4-1.4-1.4h0 0zM251.1 44c-1.2 0-2.1-1-2.1-2.2s1-2.1 2.2-2.1 2.1 1 2.1 2.1c-.1 1.2-1 2.2-2.2 2.2zm0-3.5c-.8 0-1.4.6-1.4 1.3 0 .8.6 1.4 1.4 1.4s1.4-.6 1.4-1.4c-.1-.7-.7-1.3-1.4-1.3h0zM275 51c-1.2 0-2.1-1-2.1-2.2s1-2.1 2.2-2.1 2.1 1 2.1 2.1A2.22 2.22 0 0 1 275 51h0zm0-3.5c-.8 0-1.4.6-1.4 1.3 0 .8.6 1.4 1.4 1.4s1.4-.6 1.4-1.4c0-.7-.6-1.3-1.4-1.3h0zm71.3 3.5c-1.2 0-2.1-1-2.1-2.2s1-2.1 2.2-2.1 2.1 1 2.1 2.1c-.1 1.2-1 2.2-2.2 2.2zm0-3.5c-.7 0-1.4.6-1.4 1.3 0 .8.6 1.4 1.4 1.4s1.4-.6 1.4-1.4c-.1-.7-.7-1.3-1.4-1.3zm-24.5-6.1h50.5v.8h-50.5z"/><path d="M348 48.4h24.3v.8H348zm24.3 7.8h-40.9v-7h-28.1V34.8h.8v13.6h28.1v7h40.1zm0 7h-52.6v-7H291v-7h-12.7v-7.8h7v-6.6h.8v7.4h-7v6.2h12.7v7h28.7v7h51.8zm-28.8 13.6h-.8v-7.4h29.6v.8h-28.8zm-39.8-7.4h28.9v.8h-28.9zm11.1-6.2h-31.2v-7h-13.3v-.8h14.1v7h30.4zm-67.1-14.4h-.8V34.4h13.3v7h12.3v.8h-13.1v-7h-11.7zm25.6.4H256v-7h-3.2v-.8h4v7h16.5zm-31.4 21h-31.6v-.8h30.8v-6.2h-8.9v-7.8h23v.8H233v6.2h8.9zm-20.6-7h-9v-7h-6.1v7h-16.9v-.8h16.1v-7h7.7v7h8.2zm2.2-21h-15.4v-7h-20.6v-.8h21.4v7h13.8v-7h19.2v.8h-18.4zm4.4 7h-18v-.8h17.2v-7h12.4v.8h-11.6zm-31.9 7h-15.8v-.8h15v-6.2h-5.6v-7.8h11.6v.8h-10.9v6.2h5.7zm160 20.2h16.3v.8H356zm-40.7 7.8H300v-7h-14.4v-7h-16.2v-7h-14.2v-.8h15v7h16.2v7h14.4v7h13.7v-7h17.6v.8h-16.8zm-19-49.4h.8v14h-.8z"/><path d="M310.1 62.8h.8v14h-.8zm-62.3 21.4h-22.6v-7h-21.9v-7h-27.4v-.8h28.2v7H226v7h21v-7h18v.8h-17.2zm-16.5-7.8h11v.8h-11zm-25.9 124.8c-1.2 0-2.2-1-2.2-2.1 0-1.2 1-2.2 2.1-2.2 1.2 0 2.2 1 2.2 2.1.1 1.2-.9 2.2-2.1 2.2zm0-3.5c-.8 0-1.4.6-1.4 1.4s.6 1.4 1.4 1.4 1.4-.6 1.4-1.4-.6-1.4-1.4-1.4zm-11.1 5.3c-1.2 0-2.1-1-2.1-2.2s1-2.1 2.2-2.1 2.1 1 2.1 2.1a2.22 2.22 0 0 1-2.2 2.2zm0-3.6c-.8 0-1.4.6-1.4 1.4s.6 1.4 1.4 1.4c.7 0 1.3-.6 1.4-1.3 0-.8-.6-1.4-1.4-1.5zm20.4 3.6c-1.2 0-2.1-1-2.1-2.2s1-2.1 2.2-2.1 2.1 1 2.1 2.1c-.1 1.2-1 2.2-2.2 2.2zm0-3.6c-.7 0-1.3.6-1.4 1.3v.1c0 .8.6 1.4 1.4 1.3.8 0 1.4-.6 1.3-1.4 0-.6-.6-1.3-1.3-1.3zm-.3 10.6a2.22 2.22 0 0 1-2.2-2.2 2.22 2.22 0 0 1 2.2-2.2 2.22 2.22 0 0 1 2.2 2.2 2.22 2.22 0 0 1-2.2 2.2zm0-3.6c-.8 0-1.4.6-1.4 1.4s.6 1.4 1.4 1.4 1.4-.6 1.4-1.4c0-.7-.6-1.3-1.4-1.4zm32.2 3.6c-1.2 0-2.2-1-2.1-2.2s1-2.2 2.2-2.1 2.2 1 2.1 2.2c0 1.1-1 2.1-2.2 2.1zm0-3.6c-.8 0-1.4.6-1.4 1.4s.6 1.4 1.4 1.4c.7 0 1.4-.6 1.4-1.3 0-.8-.6-1.4-1.4-1.5zm-8.6-5.2c-1.2 0-2.1-1-2.1-2.2s1-2.1 2.2-2.1 2.1 1 2.1 2.1c-.1 1.2-1 2.2-2.2 2.2h0zm0-3.5c-.8 0-1.4.6-1.4 1.4s.6 1.4 1.4 1.4 1.4-.6 1.4-1.4h0c0-.8-.7-1.4-1.4-1.4zm0 21c-1.2 0-2.1-1-2.1-2.2s1-2.1 2.2-2.1 2.1 1 2.1 2.1c-.1 1.3-1 2.2-2.2 2.2h0zm0-3.5c-.8 0-1.4.6-1.4 1.4s.6 1.4 1.4 1.4 1.4-.6 1.4-1.4h0c0-.8-.7-1.4-1.4-1.4zm57.1 1.8c-1.2 0-2.1-1-2.1-2.2s1-2.1 2.2-2.1 2.1 1 2.1 2.1c-.1 1.2-1 2.2-2.2 2.2h0zm0-3.5c-.8 0-1.4.6-1.4 1.4s.6 1.4 1.4 1.4 1.4-.6 1.4-1.4c-.1-.8-.7-1.4-1.4-1.4zm-62.9 3.5c-1.2 0-2.2-1-2.2-2.1 0-1.2 1-2.2 2.1-2.2 1.2 0 2.2 1 2.2 2.1 0 1.2-1 2.2-2.1 2.2zm0-3.6c-.8 0-1.4.6-1.4 1.4s.6 1.4 1.4 1.4 1.4-.6 1.4-1.4a1.7 1.7 0 0 0-1.4-1.4zm47.7 10.6c-1.2 0-2.1-1-2.1-2.2s1-2.1 2.2-2.1 2.1 1 2.1 2.1a2.22 2.22 0 0 1-2.2 2.2h0zm0-3.5c-.8 0-1.4.6-1.3 1.4s.6 1.4 1.4 1.3c.8 0 1.4-.6 1.3-1.4s-.6-1.3-1.4-1.3zm11.6 3.5c-1.2 0-2.1-1-2.1-2.2s1-2.1 2.2-2.1 2.1 1 2.1 2.1a2.22 2.22 0 0 1-2.2 2.2zm0-3.5c-.8 0-1.4.6-1.4 1.4s.6 1.4 1.4 1.4 1.4-.6 1.4-1.4-.6-1.4-1.4-1.4zM340 210a2.22 2.22 0 0 1-2.2-2.2 2.22 2.22 0 0 1 2.2-2.2 2.22 2.22 0 0 1 2.2 2.2c-.1 1.2-1 2.2-2.2 2.2h0zm0-3.6c-.8 0-1.4.6-1.4 1.4s.6 1.4 1.4 1.4 1.4-.6 1.4-1.4h0c-.1-.7-.7-1.4-1.4-1.4zm-58.3-3.4c-1.2 0-2.1-1-2.1-2.2s1-2.1 2.2-2.1 2.1 1 2.1 2.1c-.1 1.2-1 2.2-2.2 2.2zm0-3.6c-.8 0-1.4.6-1.4 1.4s.6 1.4 1.4 1.4 1.4-.6 1.4-1.4h0c0-.7-.7-1.4-1.4-1.4zm43.7 17.6c-1.2 0-2.1-1-2.1-2.2s1-2.1 2.2-2.1 2.1 1 2.1 2.2c0 1.1-1 2.1-2.2 2.1zm0-3.6c-.8 0-1.4.6-1.4 1.3 0 .8.6 1.4 1.3 1.4.8 0 1.4-.6 1.4-1.3.1-.7-.5-1.3-1.3-1.4zm27.2 3.6c-1.2 0-2.2-.9-2.2-2.1s.9-2.2 2.1-2.2 2.2.9 2.2 2.1c.1 1.2-.9 2.2-2.1 2.2zm0-3.6c-.8 0-1.4.6-1.4 1.4s.6 1.4 1.4 1.4 1.4-.6 1.4-1.4h0c0-.7-.6-1.4-1.4-1.4z"/><path d="M205.8 208.2h-29.6v-.8H205v-6.6h.8zm10.1-.8h28.9v.8h-28.9zm62.3 14.8h-14v-7h-30.5v-.8h31.2v7h13.3z"/><use xlink:href="#o"/><use xlink:href="#p"/><path d="M176.2 200.4h16.3v.8h-16.3z"/><use xlink:href="#q"/><path d="M237.6 200.8h.8v14h-.8z"/><use xlink:href="#r"/><path d="M306.2 200.4h11v.8h-11zm-95-10.4a2.22 2.22 0 0 1-2.2-2.2 2.22 2.22 0 0 1 2.2-2.2c1.2 0 2.2 1 2.2 2.1-.1 1.3-1 2.3-2.2 2.3zm0-3.6c-.8 0-1.4.6-1.4 1.4s.6 1.4 1.4 1.4 1.4-.6 1.4-1.4h0c0-.8-.7-1.4-1.4-1.4h0zm51.6 5.3c-1.2 0-2.1-1-2.1-2.2s1-2.2 2.2-2.1c1.2 0 2.1 1 2.1 2.2-.1 1.1-1 2.1-2.2 2.1zm0-3.5c-.7 0-1.3.6-1.4 1.3 0 .8.6 1.4 1.4 1.4s1.4-.6 1.4-1.4-.7-1.3-1.4-1.3zm-34.6-5.3c-1.2 0-2.1-1-2.1-2.2s1-2.1 2.2-2.1 2.1 1 2.1 2.1c-.1 1.3-1 2.2-2.2 2.2h0zm0-3.5c-.8.1-1.3.7-1.3 1.5.1.7.6 1.2 1.3 1.3.8 0 1.4-.6 1.4-1.4s-.7-1.4-1.4-1.4h0zm16.6 12.3c-1.2 0-2.1-1-2.1-2.2s1-2.2 2.2-2.1c1.2 0 2.1 1 2.1 2.2 0 1.1-1 2.1-2.2 2.1zm0-3.5c-.8 0-1.4.6-1.4 1.4s.6 1.4 1.4 1.4 1.4-.6 1.4-1.4-.6-1.4-1.4-1.4h0zm-39.4-42c-1.2 0-2.2-1-2.2-2.1 0-1.2 1-2.2 2.1-2.2 1.2 0 2.2 1 2.2 2.1s-.9 2.2-2.1 2.2zm0-3.5c-.8 0-1.4.6-1.4 1.4s.6 1.4 1.4 1.4 1.4-.6 1.4-1.4-.6-1.4-1.4-1.4zm-11.1 5.2c-1.2 0-2.1-1-2.1-2.2s1-2.2 2.2-2.1c1.2 0 2.1 1 2.1 2.1 0 1.3-1 2.2-2.2 2.2zm0-3.5c-.8 0-1.4.6-1.4 1.4s.6 1.4 1.4 1.4 1.4-.6 1.4-1.4-.6-1.4-1.4-1.4h0zm20.4 3.5c-1.2 0-2.1-1-2.1-2.2s1-2.1 2.2-2.1 2.1 1 2.1 2.1c0 1.3-1 2.2-2.2 2.2zm0-3.5c-.8 0-1.4.6-1.4 1.4s.6 1.4 1.4 1.4 1.4-.6 1.4-1.4-.6-1.4-1.4-1.4h0zm-.3 10.5c-1.2 0-2.1-1-2.1-2.2s1-2.1 2.2-2.1 2.1 1 2.1 2.1c0 1.3-1 2.2-2.2 2.2h0zm0-3.5c-.8 0-1.4.6-1.4 1.4s.6 1.4 1.4 1.4c.7 0 1.3-.6 1.4-1.3 0-.8-.6-1.4-1.4-1.5zm32.2 3.5c-1.2 0-2.1-1-2.1-2.2s1-2.1 2.2-2.1 2.1 1 2.1 2.2c-.1 1.2-1 2.1-2.2 2.1zm0-3.5c-.8 0-1.4.6-1.3 1.4s.6 1.4 1.4 1.3c.7 0 1.3-.6 1.3-1.3s-.6-1.3-1.4-1.4zm-8.6-5.2c-1.2 0-2.1-1-2.1-2.2s1-2.2 2.2-2.1c1.2 0 2.1 1 2.1 2.1-.1 1.2-1 2.2-2.2 2.2zm0-3.5c-.8 0-1.4.6-1.4 1.4s.6 1.4 1.4 1.4 1.4-.6 1.4-1.4c-.1-.8-.7-1.4-1.4-1.4zm0 21a2.22 2.22 0 0 1-2.2-2.2 2.22 2.22 0 0 1 2.2-2.2 2.22 2.22 0 0 1 2.2 2.2c-.1 1.2-1 2.2-2.2 2.2zm0-3.5c-.8 0-1.4.6-1.4 1.4 0 .7.6 1.4 1.3 1.4h.1c.8 0 1.4-.6 1.4-1.4-.1-.8-.7-1.4-1.4-1.4z"/><use xlink:href="#s"/><path d="M232.2 161.9c-1.2 0-2.2-1-2.2-2.1 0-1.2 1-2.2 2.1-2.2 1.2 0 2.2 1 2.2 2.1 0 1.3-1 2.2-2.1 2.2zm0-3.5c-.8-.1-1.4.5-1.5 1.2s.5 1.4 1.2 1.5h.2c.7 0 1.4-.6 1.4-1.3 0-.8-.6-1.4-1.3-1.4h0z"/><use xlink:href="#t"/><path d="M291.5 168.9c-1.2 0-2.1-1-2.1-2.2s1-2.1 2.2-2.1 2.1 1 2.1 2.2-1 2.1-2.2 2.1zm0-3.5c-.8 0-1.4.6-1.4 1.4s.6 1.4 1.4 1.4 1.4-.6 1.4-1.4c0-.7-.6-1.4-1.4-1.4h0zm48.5-10.5c-1.2 0-2.1-1-2.1-2.2s1-2.1 2.2-2.1 2.1 1 2.1 2.1c-.1 1.3-1 2.2-2.2 2.2h0zm0-3.5c-.8 0-1.4.6-1.4 1.3 0 .8.6 1.4 1.4 1.4s1.4-.6 1.4-1.4c-.1-.7-.7-1.3-1.4-1.3zm-58.3-3.5c-1.2 0-2.1-1-2.1-2.2s1-2.2 2.2-2.1c1.2 0 2.1 1 2.1 2.1-.1 1.3-1 2.2-2.2 2.2zm0-3.5c-.8 0-1.4.6-1.4 1.4s.6 1.4 1.4 1.4 1.4-.6 1.4-1.4-.6-1.4-1.4-1.4h0zm43.7 17.5c-1.2 0-2.1-1-2.1-2.2s1-2.1 2.2-2.1 2.1 1 2.1 2.2c-.1 1.2-1 2.1-2.2 2.1zm0-3.5c-.8 0-1.4.6-1.4 1.4s.6 1.4 1.4 1.4c.7 0 1.4-.6 1.4-1.3 0-.8-.6-1.4-1.4-1.5h0zm27.2 3.5c-1.2 0-2.2-.9-2.2-2.1s.9-2.2 2.1-2.2 2.2.9 2.2 2.1v.1c0 1.2-.9 2.1-2.1 2.1zm0-3.5c-.8 0-1.4.6-1.4 1.4s.6 1.4 1.4 1.4 1.4-.6 1.4-1.4-.6-1.4-1.4-1.4h0zm-78.3 24.5c-1.2 0-2.1-1-2.1-2.2s1-2.1 2.2-2.1 2.1 1 2.1 2.1c-.1 1.3-1.1 2.2-2.2 2.2h0zm0-3.5c-.8 0-1.4.6-1.4 1.4s.6 1.4 1.4 1.4 1.4-.6 1.4-1.4c-.1-.8-.7-1.4-1.4-1.4h0zm26.9-5.2c-1.2 0-2.1-1-2.1-2.2s1-2.1 2.2-2.1 2.1 1 2.1 2.1a2.22 2.22 0 0 1-2.2 2.2zm0-3.5c-.8 0-1.4.6-1.4 1.4s.6 1.4 1.4 1.4 1.4-.6 1.4-1.4h0c0-.8-.6-1.4-1.4-1.4h0zm6.1 12.2c-1.2 0-2.1-1-2.1-2.2s1-2.2 2.2-2.1c1.2 0 2.1 1 2.1 2.2-.1 1.2-1 2.1-2.2 2.1zm0-3.5c-.8 0-1.4.6-1.4 1.4s.6 1.4 1.4 1.4 1.4-.6 1.4-1.4h0c0-.8-.7-1.4-1.4-1.4h0zm27.1-3.5c-1.2 0-2.1-1-2.1-2.2s1-2.2 2.2-2.1c1.2 0 2.1 1 2.1 2.2-.1 1.2-1 2.1-2.2 2.1zm0-3.5c-.8 0-1.4.6-1.3 1.4 0 .8.6 1.4 1.4 1.3.7 0 1.3-.6 1.3-1.3s-.6-1.3-1.4-1.4h0zm11.1 10.5c-1.2 0-2.1-1-2.1-2.2s1-2.1 2.2-2.1 2.1 1 2.1 2.2c-.1 1.2-1 2.1-2.2 2.1zm0-3.5c-.8 0-1.4.6-1.4 1.4s.6 1.4 1.4 1.4 1.4-.6 1.4-1.4h0c0-.8-.6-1.4-1.4-1.4h0zm25-10.5c-1.2 0-2.1-1-2.1-2.2s1-2.1 2.2-2.1 2.1 1 2.1 2.2-1 2.1-2.2 2.1h0zm0-3.5c-.8 0-1.4.6-1.4 1.4s.6 1.4 1.4 1.4 1.4-.6 1.4-1.4c0-.7-.6-1.4-1.4-1.4h0zM304.8 190c-1.2 0-2.2-.9-2.2-2.1s.9-2.2 2.1-2.2 2.2.9 2.2 2.1v.1c0 1.1-1 2-2.1 2.1zm0-3.6c-.8 0-1.4.6-1.4 1.4s.6 1.4 1.4 1.4 1.4-.6 1.4-1.4h0c-.1-.8-.7-1.4-1.4-1.4h0zm58 3.6a2.22 2.22 0 0 1-2.2-2.2 2.22 2.22 0 0 1 2.2-2.2c1.2 0 2.2 1 2.2 2.1-.1 1.3-1 2.3-2.2 2.3zm0-3.6c-.8 0-1.4.6-1.4 1.4s.6 1.4 1.4 1.4 1.4-.6 1.4-1.4h0c-.1-.8-.7-1.4-1.4-1.4h0zm-65.4-3.5c-1.2 0-2.1-1-2.1-2.2s1-2.1 2.2-2.1 2.1 1 2.1 2.2c-.1 1.2-1 2.1-2.2 2.1zm0-3.5c-.8 0-1.4.6-1.4 1.4s.6 1.4 1.4 1.4c.7 0 1.4-.6 1.4-1.3 0-.8-.6-1.5-1.4-1.5h0zm-23.9-3.5c-1.2 0-2.1-1-2.1-2.2s1-2.2 2.2-2.1c1.2 0 2.1 1 2.1 2.2-.1 1.2-1 2.1-2.2 2.1zm0-3.5c-.8 0-1.4.6-1.4 1.4s.6 1.4 1.4 1.4 1.4-.6 1.4-1.4h0c-.1-.8-.7-1.4-1.4-1.4h0zm-71.3 3.5c-1.2 0-2.1-1-2.1-2.2s1-2.2 2.2-2.1c1.2 0 2.1 1 2.1 2.2s-1 2.1-2.2 2.1zm0-3.5c-.8 0-1.4.6-1.4 1.4s.6 1.4 1.4 1.4 1.4-.6 1.4-1.4h0c0-.8-.6-1.4-1.4-1.4h0 0zm-11.5 8h36v.8h-36zm54.5 7.4h-.7v-13.6h-28.2v-7h-40.1v-.8h40.9v7h28.1zm18 0h-.8v-7.4h7v-6.2h-12.7v-7H228v-7h-51.8v-.8h52.6v7h28.7v7h12.7v7.8h-7zm-57.4-34.6h-29.6v-.8H205v-6.6h.8zm10.1-.8h28.9v.8h-28.9zm62.3 14.8h-14v-7h-30.5v-.8h31.2v7h13.3z"/><path d="M301.6 188.2h-13.3v-7H276v-.8h13.1v7h11.7v-13.6h.8zm-5.9-7h-4v-7h-16.5v-.8h17.3v7h3.2zm20.6-14h-23v-.8h22.2v-6.2h-8.9v-7.8h31.6v.8h-30.8v6.2h8.9zm26.8 0h-7.6v-7h-8.3v-.8h9v7h6.1v-7h8.6v.8h-7.8zm17.9 21h-21.4v-7h-13.8v7h-19.2v-.8H325v-7h15.4v7H361zm-39.6-7h-12.3v-.8h11.5v-7h12.1v.8h-11.3zm37.5 0h-11.6v-.8h10.9v-6.2h-5.7v-7.8h15.8v.8h-15v6.2h5.6zm-182.7-35.8h16.3v.8h-16.3zm117.1 14.8h-15v-7h-16.2v-7h-14.4v-7H234v7h-17.6v-.8h16.8v-7h15.3v7h14.4v7h16.2v7h14.2zm-41.5 31.5c-1.2 0-2.1-1-2.1-2.2s1-2.2 2.2-2.1c1.2 0 2.1 1 2.1 2.2 0 1.1-1 2.1-2.2 2.1zm0-3.5c-.7 0-1.4.6-1.4 1.3 0 .8.6 1.4 1.4 1.4s1.4-.6 1.4-1.4-.6-1.3-1.4-1.3zm0-14c-1.2 0-2.1-1-2.1-2.2s1-2.1 2.2-2.1 2.1 1 2.1 2.1a2.22 2.22 0 0 1-2.2 2.2h0zm0-3.5c-.7 0-1.4.6-1.4 1.3 0 .8.6 1.4 1.4 1.4s1.4-.6 1.4-1.4c0-.7-.6-1.3-1.4-1.3h0z"/><path d="M251.4 173.8h.8v14h-.8zM196 94.3c-1.2 0-2.1-1-2.1-2.2s1-2.2 2.2-2.1c1.2 0 2.1 1 2.1 2.2s-1 2.1-2.2 2.1zm0-3.5c-.8.1-1.3.7-1.2 1.5.1.7.6 1.2 1.2 1.2.8.1 1.4-.5 1.5-1.2s-.5-1.4-1.2-1.5h-.3z"/><use xlink:href="#u"/><path d="M195.6 76.4h.8v14h-.8zm4.9-18.8c-1.2 0-2.1-1-2.1-2.2s1-2.1 2.2-2.1 2.1 1 2.1 2.2c0 1.1-1 2.1-2.2 2.1h0zm0-3.5c-.8.1-1.3.7-1.2 1.5.1.7.6 1.2 1.2 1.2.8.1 1.4-.5 1.5-1.2.1-.8-.5-1.4-1.2-1.5h-.3zm0-14c-1.2 0-2.1-1-2.1-2.2s1-2.1 2.2-2.1 2.1 1 2.1 2.1-1 2.2-2.2 2.2h0zm0-3.5c-.8 0-1.4.6-1.4 1.4s.6 1.4 1.4 1.4 1.4-.6 1.4-1.4-.6-1.4-1.4-1.4z"/><path d="M200.1 39.7h.8v14h-.8zm-1.7 43.7c0 1.2-1 2.1-2.2 2.1s-2.1-1-2.1-2.1c0-1.2 1-2.1 2.1-2.1 1.2 0 2.2.9 2.2 2.1zm-3.5 0c0 .7.6 1.3 1.3 1.4.8 0 1.4-.6 1.4-1.4s-.6-1.4-1.4-1.4-1.3.7-1.3 1.4zm-14 0c0 1.2-1 2.1-2.2 2.1s-2.2-1-2.1-2.2c0-1.2 1-2.1 2.2-2.1 1.1.1 2.1 1.1 2.1 2.2zm-3.6 0c0 .7.6 1.4 1.3 1.4.8 0 1.4-.6 1.4-1.4s-.6-1.4-1.4-1.4-1.3.7-1.3 1.4z"/><path d="M180.5 83.1h14v.8h-14zm116.1.3c0 1.2-1 2.1-2.2 2.1s-2.2-1-2.1-2.2c0-1.2 1-2.1 2.2-2.1 1.2.1 2.1 1.1 2.1 2.2zm-3.5 0c0 .7.6 1.3 1.3 1.4h.1c.8 0 1.4-.6 1.4-1.4s-.6-1.4-1.4-1.4-1.4.7-1.4 1.4zm-14 0a2.22 2.22 0 0 1-2.2 2.2 2.22 2.22 0 0 1-2.2-2.2 2.22 2.22 0 0 1 2.2-2.2c1.3.1 2.2 1 2.2 2.2zm-3.5 0c0 .7.5 1.4 1.3 1.4h.1c.8 0 1.4-.6 1.4-1.4s-.6-1.4-1.4-1.4-1.4.7-1.4 1.4c0 .1 0 .1 0 0h0z"/><path d="M278.7 83.1h14v.8h-14zm12.1 110.3c0 1.2-1 2.1-2.2 2.1s-2.2-1-2.1-2.2c0-1.2 1-2.1 2.2-2.1 1.2.1 2.1 1 2.1 2.2zm-3.5 0c0 .7.6 1.4 1.3 1.4.8 0 1.4-.6 1.4-1.4s-.6-1.4-1.4-1.4-1.3.7-1.3 1.4zm-14 0c0 1.2-1 2.1-2.2 2.1s-2.1-1-2.1-2.2 1-2.1 2.1-2.1c1.3.1 2.2 1.1 2.2 2.2h0zm-3.5 0c0 .8.6 1.4 1.4 1.4s1.4-.6 1.4-1.4-.6-1.4-1.4-1.4-1.4.6-1.4 1.4h0z"/><path d="M272.9 193h14v.8h-14zm-68.2 22.2c-.1 1.2-1.1 2.1-2.3 2-1.1-.1-1.9-.9-2-2-.1-1.2.8-2.2 2-2.3s2.2.8 2.3 2v.3zm-3.5 0c.1.8.7 1.3 1.5 1.2.7-.1 1.2-.6 1.2-1.2.1-.8-.5-1.4-1.2-1.5s-1.4.5-1.5 1.2v.3zm-14 0c0 1.2-1 2.1-2.2 2.1s-2.1-1-2.1-2.2 1-2.1 2.1-2.1c1.2.1 2.2 1 2.2 2.2zm-3.5 0c0 .8.6 1.4 1.4 1.4s1.4-.6 1.4-1.4-.6-1.4-1.4-1.4-1.4.7-1.4 1.4z"/><path d="M186.8 214.8h14v.8h-14zm181.9-74.3c-.1 1.2-1.1 2.1-2.3 2-1.1-.1-1.9-.9-2-2-.1-1.2.8-2.2 2-2.3s2.2.8 2.3 2v.3zm-3.5 0c0 .8.6 1.4 1.4 1.4s1.4-.6 1.4-1.4-.6-1.4-1.4-1.4h0c-.8.1-1.4.7-1.4 1.4zm-14 0c0 1.2-1 2.1-2.2 2.1s-2.1-1-2.1-2.2 1-2.1 2.1-2.1c1.2.1 2.2 1 2.2 2.2zm-3.5 0c0 .7.6 1.4 1.3 1.4.8 0 1.4-.6 1.4-1.4s-.6-1.4-1.4-1.4c-.7.1-1.3.7-1.3 1.4h0z"/><path d="M350.8 140.2h14v.8h-14zm17.9 56.6c0 1.2-1 2.1-2.2 2.1s-2.2-1-2.1-2.2c0-1.2 1-2.1 2.2-2.1 1.1.1 2.1 1 2.1 2.2zm-3.5 0c0 .8.6 1.4 1.4 1.4s1.4-.6 1.4-1.4-.6-1.4-1.4-1.4h0c-.8.1-1.4.7-1.4 1.4zm-14 0c0 1.2-1 2.1-2.2 2.1s-2.1-1-2.1-2.2 1-2.1 2.1-2.1c1.2.1 2.2 1 2.2 2.2zm-3.5 0c0 .7.6 1.3 1.3 1.4h.1c.8 0 1.4-.6 1.4-1.4s-.6-1.4-1.4-1.4-1.4.7-1.4 1.4z"/><path d="M350.8 196.5h14v.8h-14zm17.9 24.4c0 1.2-1 2.1-2.2 2.1s-2.1-1-2.1-2.2 1-2.1 2.2-2.1c1.1 0 2.1 1 2.1 2.2zm-3.5 0c0 .7.6 1.4 1.3 1.4.8 0 1.4-.6 1.4-1.4s-.6-1.4-1.4-1.4-1.3.6-1.3 1.4zm-14 0c0 1.2-1 2.1-2.2 2.1s-2.1-1-2.1-2.2 1-2.1 2.1-2.1a2.22 2.22 0 0 1 2.2 2.2zm-3.5 0c0 .7.6 1.4 1.3 1.4.8 0 1.4-.6 1.4-1.4s-.6-1.4-1.4-1.4-1.3.6-1.3 1.4z"/><path d="M350.8 220.5h14v.8h-14zm-121.7.4c0 1.2-1 2.1-2.1 2.1s-2.1-1-2.1-2.1 1-2.1 2.1-2.1 2.1.9 2.1 2.1zm-3.5 0c0 .7.6 1.4 1.3 1.4.8 0 1.4-.6 1.4-1.4s-.6-1.4-1.4-1.4-1.3.6-1.3 1.4zm-14 0c0 1.2-1 2.1-2.2 2.1s-2.1-1-2.1-2.2 1-2.1 2.2-2.1 2.1 1 2.1 2.2zm-3.5 0c0 .8.6 1.4 1.4 1.4s1.4-.6 1.4-1.4-.6-1.4-1.4-1.4-1.4.6-1.4 1.4z"/><path d="M211.2 220.5h14v.8h-14zm68.3-82.1c.1 1.2-.8 2.2-2 2.3s-2.2-.8-2.3-2v-.3c-.1-1.2.8-2.2 2-2.3s2.2.8 2.3 2v.3zm-3.5 0c0 .8.6 1.4 1.4 1.4s1.4-.6 1.4-1.4-.6-1.4-1.4-1.4-1.4.6-1.4 1.4zm-14 0c0 1.2-1 2.1-2.2 2.1s-2.1-1-2.1-2.2 1-2.1 2.1-2.1a2.22 2.22 0 0 1 2.2 2.2zm-3.6 0c0 .8.6 1.4 1.3 1.4.8 0 1.4-.6 1.4-1.4s-.6-1.4-1.4-1.4c-.6 0-1.3.6-1.3 1.4h0z"/><path d="M261.6 138h14v.8h-14zm-22.5 51.6c0 1.2-1 2.1-2.2 2.1s-2.2-1-2.1-2.2c0-1.2 1-2.1 2.2-2.1 1.1 0 2.1 1 2.1 2.2zm-3.5 0c0 .7.6 1.4 1.3 1.4.8 0 1.4-.6 1.4-1.4s-.6-1.4-1.4-1.4c-.7 0-1.3.6-1.3 1.4zm-14 0c0 1.2-1 2.1-2.2 2.1s-2.1-1-2.1-2.2 1-2.1 2.1-2.1a2.22 2.22 0 0 1 2.2 2.2h0zm-3.5 0c0 .8.6 1.4 1.3 1.4.8 0 1.4-.6 1.4-1.4-.1-.8-.7-1.3-1.5-1.3-.7.1-1.2.6-1.2 1.3z"/><path d="M221.2 189.2h14v.8h-14zm16.4-43.4h.8v14h-.8zm134.7 7.4h-28.1v-7h-21.8v-7h-21v7h-17.9v-.8h17.2v-7h22.5v7H345v7h27.3zm-66.1-7.8h11v.8h-11zm33.1-13h33v.8h-33z"/><path d="M337.3 135c-1.2 0-2.2-1-2.2-2.1 0-1.2 1-2.2 2.1-2.2 1.2 0 2.2 1 2.2 2.1.1 1.2-.9 2.2-2.1 2.2zm0-3.5c-.8 0-1.4.6-1.4 1.4s.6 1.4 1.4 1.4 1.4-.6 1.4-1.4-.6-1.4-1.4-1.4h0zm-51.5 5.2c-1.2 0-2.1-1-2.1-2.2s1-2.1 2.2-2.1 2.1 1 2.1 2.2c-.1 1.2-1 2.1-2.2 2.1h0zm0-3.5c-.8 0-1.4.6-1.4 1.4s.6 1.4 1.4 1.4 1.4-.6 1.4-1.4h0c-.1-.7-.7-1.4-1.4-1.4zm34.5-5.2c-1.2 0-2.1-1-2.1-2.2s1-2.1 2.2-2.1 2.1 1 2.1 2.1a2.22 2.22 0 0 1-2.2 2.2zm0-3.5c-.7 0-1.3.6-1.4 1.3v.1c0 .8.6 1.4 1.4 1.4s1.4-.6 1.4-1.4-.6-1.4-1.4-1.4zm-16.6 12.2c-1.2 0-2.2-1-2.2-2.1 0-1.2 1-2.2 2.1-2.2 1.2 0 2.2 1 2.2 2.1 0 1.3-1 2.2-2.1 2.2zm0-3.5c-.8 0-1.4.6-1.4 1.4s.6 1.4 1.4 1.4 1.4-.6 1.4-1.4a1.7 1.7 0 0 0-1.4-1.4zm-7 3.5c-1.2 0-2.1-1-2.1-2.2s1-2.1 2.2-2.1 2.1 1 2.1 2.2c-.1 1.2-1 2.1-2.2 2.1h0zm0-3.5c-.8 0-1.4.6-1.4 1.4s.6 1.4 1.4 1.4 1.4-.6 1.4-1.4c-.1-.7-.6-1.3-1.4-1.4zm0-14a2.22 2.22 0 0 1-2.2-2.2 2.22 2.22 0 0 1 2.2-2.2 2.22 2.22 0 0 1 2.2 2.2c-.1 1.3-1 2.2-2.2 2.2zm0-3.5c-.8 0-1.4.6-1.4 1.4s.6 1.4 1.4 1.4 1.4-.6 1.4-1.4c-.1-.8-.7-1.4-1.4-1.4zm46.4-24.5c-1.2 0-2.1-1-2.1-2.2s1-2.2 2.2-2.1c1.2 0 2.1 1 2.1 2.1-.1 1.3-1 2.2-2.2 2.2zm0-3.5c-.8 0-1.4.6-1.4 1.4s.6 1.4 1.4 1.4 1.4-.6 1.4-1.4c-.1-.8-.7-1.4-1.4-1.4zm11.1 5.3c-1.2 0-2.2-.9-2.2-2.1s.9-2.2 2.1-2.2 2.2.9 2.2 2.1-.9 2.2-2.1 2.2zm0-3.5c-.8 0-1.4.6-1.4 1.4s.6 1.4 1.4 1.4 1.4-.6 1.4-1.4-.6-1.4-1.4-1.4zM333.8 93c-1.2 0-2.2-.9-2.2-2.1s.9-2.2 2.1-2.2 2.2.9 2.2 2.1-.9 2.2-2.1 2.2zm0-3.5c-.8.1-1.3.7-1.3 1.5.1.7.6 1.2 1.3 1.3.8-.1 1.3-.7 1.3-1.5-.1-.8-.7-1.3-1.3-1.3z"/><use xlink:href="#v"/><path d="M299.4 100c-1.2 0-2.1-1-2.1-2.2s1-2.1 2.2-2.1 2.1 1 2.1 2.1c-.1 1.2-1 2.2-2.2 2.2zm0-3.5c-.7 0-1.4.6-1.4 1.3 0 .8.6 1.4 1.4 1.4s1.4-.6 1.4-1.4c0-.7-.7-1.3-1.4-1.3zm8.8-3.8c-1.2 0-2.1-1-2.1-2.2s1-2.2 2.2-2.1c1.2 0 2.1 1 2.1 2.1-.1 1.3-1 2.2-2.2 2.2zm0-3.5c-.8 0-1.4.6-1.4 1.3 0 .8.6 1.4 1.4 1.4s1.4-.6 1.4-1.4c-.1-.7-.7-1.3-1.4-1.3zm0 21c-1.2 0-2.2-.9-2.2-2.1s.9-2.2 2.1-2.2 2.2.9 2.2 2.1c0 1.3-.9 2.2-2.1 2.2zm0-3.5c-.8.1-1.3.7-1.3 1.5.1.7.6 1.2 1.3 1.3.7 0 1.4-.6 1.4-1.3-.1-.9-.7-1.5-1.4-1.5h0 0zm-54.8.3c-1.2 0-2.1-1-2.1-2.1 0-1.2 1-2.1 2.1-2.1 1.2 0 2.1 1 2.1 2.1.1 1.1-.9 2.1-2.1 2.1zm0-3.5c-.8 0-1.4.6-1.4 1.4s.6 1.4 1.4 1.4 1.4-.6 1.4-1.4-.6-1.4-1.4-1.4zm63 3.5c-1.2 0-2.1-1-2.1-2.2s1-2.1 2.2-2.1 2.1 1 2.1 2.1c-.1 1.2-1 2.2-2.2 2.2zm0-3.5c-.8 0-1.4.6-1.4 1.4s.6 1.4 1.4 1.4 1.4-.6 1.4-1.3c0-.9-.6-1.5-1.4-1.5zM268.6 114c-1.2 0-2.1-1-2.1-2.2s1-2.1 2.2-2.1 2.1 1 2.1 2.2c0 1.1-1 2.1-2.2 2.1zm0-3.5c-.8 0-1.4.6-1.4 1.4s.6 1.4 1.4 1.4 1.4-.6 1.4-1.4c-.1-.8-.7-1.4-1.4-1.4zM257 114c-1.2 0-2.1-1-2.1-2.2s1-2.1 2.2-2.1 2.1 1 2.1 2.2c-.1 1.1-1 2.1-2.2 2.1zm0-3.5c-.8 0-1.4.6-1.4 1.4s.6 1.4 1.4 1.4 1.4-.6 1.4-1.4c-.1-.8-.7-1.4-1.4-1.4zM208.5 100c-1.2 0-2.1-1-2.1-2.2s1-2.1 2.2-2.1 2.1 1 2.1 2.1a2.22 2.22 0 0 1-2.2 2.2zm0-3.5c-.8 0-1.4.6-1.4 1.3 0 .8.6 1.4 1.4 1.4s1.4-.6 1.4-1.4c0-.7-.6-1.3-1.4-1.3zm58.3-3.5a2.22 2.22 0 0 1-2.2-2.2 2.22 2.22 0 0 1 2.2-2.2c1.2 0 2.2 1 2.2 2.1-.1 1.3-1 2.3-2.2 2.3zm0-3.5c-.8 0-1.4.6-1.4 1.4s.6 1.4 1.4 1.4 1.4-.6 1.4-1.4-.6-1.4-1.4-1.4zM223.1 107c-1.2 0-2.1-1-2.1-2.2s1-2.1 2.2-2.1 2.1 1 2.1 2.1c-.1 1.2-1 2.2-2.2 2.2h0zm0-3.5c-.8 0-1.4.6-1.4 1.3 0 .8.6 1.4 1.3 1.4.8 0 1.4-.6 1.4-1.3.1-.8-.5-1.4-1.3-1.4zm-27.2 3.5c-1.2 0-2.1-1-2.1-2.2s1-2.1 2.2-2.1 2.1 1 2.1 2.1c-.1 1.2-1 2.2-2.2 2.2zm0-3.5c-.8 0-1.4.6-1.4 1.3 0 .8.6 1.4 1.4 1.4s1.4-.6 1.4-1.4c-.1-.7-.7-1.3-1.4-1.3zm78.4 24.5c-1.2 0-2.1-1-2.1-2.2s1-2.1 2.2-2.1 2.1 1 2.1 2.1c-.1 1.2-1.1 2.2-2.2 2.2h0zm0-3.5c-.8 0-1.4.6-1.4 1.4s.6 1.4 1.4 1.4 1.4-.6 1.4-1.4h0c-.1-.8-.7-1.4-1.4-1.4h0zm-27-5.3a2.22 2.22 0 0 1-2.2-2.2 2.22 2.22 0 0 1 2.2-2.2 2.22 2.22 0 0 1 2.2 2.2c0 1.3-1 2.2-2.2 2.2zm0-3.5c-.8 0-1.4.6-1.4 1.4s.6 1.4 1.4 1.4 1.4-.6 1.4-1.4-.6-1.4-1.4-1.4zm-6.1 12.3c-1.2 0-2.1-1-2.1-2.2s1-2.1 2.2-2.1 2.1 1 2.1 2.1a2.22 2.22 0 0 1-2.2 2.2zm0-3.5c-.8 0-1.4.6-1.4 1.4s.6 1.4 1.4 1.4 1.4-.6 1.4-1.4-.6-1.4-1.4-1.4h0zm-27.1-3.5c-1.2 0-2.1-1-2.1-2.2s1-2.2 2.2-2.1c1.2 0 2.1 1 2.1 2.2 0 1.1-1 2.1-2.2 2.1zm0-3.5c-.7 0-1.3.6-1.4 1.4 0 .8.6 1.4 1.4 1.4s1.4-.6 1.4-1.4-.6-1.4-1.4-1.4h0 0z"/><use xlink:href="#w"/><path d="M178 114c-1.2 0-2.1-1-2.1-2.2s1-2.1 2.2-2.1 2.1 1 2.1 2.2c-.1 1.1-1 2.1-2.2 2.1h0zm0-3.5c-.8 0-1.4.6-1.3 1.4s.6 1.4 1.4 1.3c.7 0 1.3-.6 1.3-1.3 0-.8-.7-1.4-1.4-1.4z"/><use xlink:href="#x"/><path d="M185.8 135c-1.2 0-2.1-1-2.1-2.2s1-2.2 2.2-2.1c1.2 0 2.1 1 2.1 2.1-.1 1.2-1 2.2-2.2 2.2zm0-3.5c-.8 0-1.4.6-1.4 1.4s.6 1.4 1.4 1.4 1.4-.6 1.4-1.4c-.1-.8-.7-1.4-1.4-1.4h0zm65.3-3.5c-1.2 0-2.1-1-2.1-2.2s1-2.1 2.2-2.1 2.1 1 2.1 2.1c-.1 1.2-1 2.2-2.2 2.2zm0-3.5c-.8 0-1.4.6-1.4 1.4s.6 1.4 1.4 1.4 1.4-.6 1.4-1.4-.7-1.4-1.4-1.4zM275 121c-1.2 0-2.1-1-2.1-2.2s1-2.2 2.2-2.1c1.2 0 2.1 1 2.1 2.2 0 1.1-1 2.1-2.2 2.1zm0-3.5c-.8 0-1.4.6-1.4 1.4s.6 1.4 1.4 1.4 1.4-.6 1.4-1.4-.6-1.4-1.4-1.4zm71.3 3.5c-1.2 0-2.1-1-2.1-2.2s1-2.2 2.2-2.1c1.2 0 2.1 1 2.1 2.2-.1 1.1-1.1 2.1-2.2 2.1zm0-3.5c-.7 0-1.3.6-1.4 1.3v.1c0 .8.6 1.4 1.4 1.4s1.4-.6 1.4-1.4-.7-1.4-1.4-1.4zm-24.5 8h50.5v.8h-50.5z"/><path d="M348 118.5h24.3v.8H348zm-43.9 14.3h-.8v-14.3h28.1v-7h40.9v.7h-40.1v7h-28.1zm-18 0h-.8v-6.6h-7v-7.7H291v-7h28.7v-7.1h52.6v.8h-51.8v7h-28.7v7h-12.7v6.3h7zm86.2-34.6h-29.6v-7.4h.8v6.6h28.8zm-71.1-.8h28.9v.8h-28.9zm-16.8 14.8h-14.1v-.7h13.3v-7.1h31.2v.8h-30.4zm-24.2 21h-13.3v-14.4h.8v13.6h11.7v-6.9h13.1v.7h-12.3zm-3.4-7h-4v-.7h3.2v-7h17.3v.7h-16.5zm-1.6-14h-23v-7.8h8.9v-6.2h-30.8v-.8h31.6v7.8H233v6.3h22.2zm-42.1 0h-7.7v-7h-7.8v-.7h8.6v7h6.1v-7.1h9v.8h-8.2zm28.8 21h-19.2v-7h-13.8v7h-21.4v-.8h20.6v-6.9h15.4v6.9h18.4zm-2.4-7h-12.4v-7h-11.3v-.7h12.1v7h11.6zm-38.3 0h-11.6v-7.7h5.6v-6.3h-15v-.7H196v7.7h-5.7v6.3h10.9zM356 90.4h16.3v.8H356zm-85.8 14.8h-15v-.7h14.2v-7.1h16.2v-7H300v-7h15.3v7h16.8v.8h-17.6v-7h-13.7v7h-14.4v7h-16.2zm26.1 13.6h.8v14h-.8z"/><path d="M307.8 92.3h.8v14h-.8zm-103.6 5.9H176v-.8h27.4v-7h21.8v-7h22.6v7H265v.8h-18v-7h-21v7h-21.8zm27.1-7.8h11v.8h-11zM229.1 79c-1.2 0-2.1-1-2.1-2.2s1-2.1 2.2-2.1 2.1 1 2.1 2.2c0 1.1-1 2.1-2.2 2.1zm0-3.5c-.8 0-1.4.6-1.4 1.4s.6 1.4 1.4 1.4 1.4-.6 1.4-1.4h0c0-.8-.6-1.4-1.4-1.4z"/><path d="M229.1 93c-1.2 0-2.1-1-2.1-2.2s1-2.2 2.2-2.1c1.2 0 2.1 1 2.1 2.2 0 1.1-1 2.1-2.2 2.1zm0-3.5c-.8 0-1.4.6-1.4 1.4s.6 1.4 1.4 1.4 1.4-.6 1.4-1.4h0c0-.8-.6-1.4-1.4-1.4zm15.3 3.5c-1.2 0-2.1-1-2.1-2.2s1-2.2 2.2-2.1c1.2 0 2.1 1 2.1 2.2 0 1.1-1 2.1-2.2 2.1zm0-3.5c-.8.1-1.3.7-1.2 1.5.1.7.6 1.2 1.2 1.2.8.1 1.4-.5 1.5-1.2s-.5-1.4-1.2-1.5h-.3zm60.1 58.4c-1.2 0-2.1-1-2.1-2.1s1-2.1 2.1-2.1h0c1.2 0 2.1 1 2.1 2.1s-1 2.1-2.1 2.1zm0-3.5c-.8 0-1.4.6-1.4 1.4s.6 1.4 1.4 1.4 1.4-.6 1.4-1.4c-.1-.8-.7-1.4-1.4-1.4zm14.9 3.5c-1.2 0-2.1-1-2.1-2.2s1-2.1 2.2-2.1 2.1 1 2.1 2.1c-.1 1.3-1 2.2-2.2 2.2zm0-3.5c-.8 0-1.4.6-1.4 1.4s.6 1.4 1.4 1.4 1.4-.6 1.4-1.4h0c-.1-.8-.7-1.4-1.4-1.4zm0 58.6c-1.2 0-2.1-1-2.1-2.2s1-2.1 2.2-2.1 2.1 1 2.1 2.2c-.1 1.1-1 2.1-2.2 2.1h0zm0-3.5c-.8 0-1.3.6-1.3 1.4s.6 1.3 1.4 1.3c.7 0 1.3-.6 1.3-1.3 0-.8-.6-1.4-1.4-1.4zm-14.9 3.5c-1.2 0-2.1-1-2.1-2.2s1-2.1 2.2-2.1 2.1 1 2.1 2.2c-.1 1.1-1.1 2.1-2.2 2.1h0zm0-3.5c-.8 0-1.4.6-1.4 1.4.1.8.7 1.3 1.5 1.2.7-.1 1.2-.6 1.2-1.2 0-.8-.6-1.4-1.3-1.4zM244.4 79c-1.2 0-2.1-1-2.1-2.2s1-2.1 2.2-2.1 2.1 1 2.1 2.2c0 1.1-1 2.1-2.2 2.1zm0-3.5c-.8.1-1.3.7-1.2 1.5.1.7.6 1.2 1.2 1.2.8.1 1.4-.5 1.5-1.2.1-.8-.5-1.4-1.2-1.5h-.3z"/></g></svg>