<svg xmlns="http://www.w3.org/2000/svg" width="120" height="120" viewBox="0 0 120 120">
  <g id="agro_sap" transform="translate(-56 -32)">
    <rect id="Rectangle_1" data-name="Rectangle 1" width="120" height="120" rx="60" transform="translate(56 32)" fill="#5dbf56"/>
    <g id="leaf-nature-plant-natural-svgrepo-com" transform="translate(86.7 61.536)">
      <path id="Path_43" data-name="Path 43" d="M-58.348,128.614C-68.67,118.36-71.2,83.6-71.2,83.6a43.644,43.644,0,0,0,18.312,5.46c10.521.932,20.31,2.4,26.036,8.124,8.856,8.856,11.054,21.375,5.993,30.3-6.992-11.853-29.965-22.307-29.965-22.307,16.314,11.587,27.035,22.64,38.222,38.622l-6.193.732s-4.062-7.391-7.658-10.921C-35.375,139.868-48.959,138-58.348,128.614Z" transform="translate(71.2 -83.6)" fill="#fff"/>
    </g>
  </g>
</svg>
