<svg xmlns="http://www.w3.org/2000/svg" width="120" height="120" viewBox="0 0 120 120">
  <g id="agro_cultural" transform="translate(-56 -32)">
    <rect id="Rectangle_1" data-name="Rectangle 1" width="120" height="120" rx="60" transform="translate(56 32)" fill="#fbac51"/>
    <path id="gardening-shears-svgrepo-com" d="M43.017,24.96C45.731,35.6,50.131,41.776,52.66,44.608l.2.219.27.152a8.092,8.092,0,1,1-11.684,7.25,8.231,8.231,0,0,1,1.113-4.114l.489-.843-.54-.826a15.93,15.93,0,0,1-2.462-12.938,43.728,43.728,0,0,1,2.967-8.548Zm20.4,19.328a8.993,8.993,0,0,1,3.524.674c.674,1.366,1.045,3.153,1.787,4.906a6.343,6.343,0,0,0,1.956,2.63,5.615,5.615,0,0,0,3.439,1.012c9.526,1.737,15.562,4.451,19.608,7.654a25.193,25.193,0,0,1,7.907,10.925v.017a1.617,1.617,0,0,1-.017,1.551,3.466,3.466,0,0,1-1.416,1.366,4.288,4.288,0,0,1-2.04.506,1.69,1.69,0,0,1-1.248-.523,71.188,71.188,0,0,0-7.671-8.717c-3.136-2.765-7.064-4.906-11.718-4.367-3.574.4-5.581-1.079-8.5-2.832a18.228,18.228,0,0,0-8.919-2.967,11.083,11.083,0,0,0,.708-3.895A11.265,11.265,0,0,0,58.089,44.9c.944-.169,1.973-.388,3.052-.506.573-.051,1.146-.1,1.72-.1Zm-40.027,2.9c4.636,1.534,9.543,2.9,15.192,2.5a11.681,11.681,0,0,0-.3,2.546,11.344,11.344,0,0,0,2.394,6.929,15.747,15.747,0,0,1-11.146-4.417A44.981,44.981,0,0,1,23.39,47.188Zm26.151.641a4.4,4.4,0,1,0,4.4,4.4A4.425,4.425,0,0,0,49.541,47.829Zm0,3.17a1.231,1.231,0,1,1-1.231,1.231A1.21,1.21,0,0,1,49.541,51Zm4.35,11.633a32.824,32.824,0,0,0,8.632,19.187c4.518,4.923,9.627,8.379,13.269,13.033a7.34,7.34,0,0,1,.2,2.917,10.346,10.346,0,0,1-1.163,3.675c-.573.944-1.163,1.366-1.7,1.416-.506.051-1.45-.219-2.866-1.77-3.035-5.614-9.054-14.3-17.012-18.107A9.655,9.655,0,0,1,47.8,76.743a22.7,22.7,0,0,1-.489-8.447,10.284,10.284,0,0,0-.792-5.227,10.528,10.528,0,0,0,3.018.421,11.631,11.631,0,0,0,4.35-.86Z" transform="translate(53.392 28.088)" fill="#fff"/>
  </g>
</svg>
