<svg xmlns="http://www.w3.org/2000/svg" width="120" height="120" viewBox="0 0 120 120">
  <g id="agro_planting" transform="translate(-56 -32)">
    <rect id="Rectangle_1" data-name="Rectangle 1" width="120" height="120" rx="60" transform="translate(56 32)" fill="#707ce8"/>
    <path id="Path_50" data-name="Path 50" d="M71.938,71.928c-3.892,3.892-7.032.7-10.924-3.194L41.432,49.152l-2.563,2.563c-.975.975-3.353.176-4.328-.8s-1.773-3.353-.8-4.328l3.865-3.865-6.261-6.261L20.592,47.219a2.5,2.5,0,0,1-3.529,0l-5.392-5.392A38.585,38.585,0,0,1,1.4,23.4C-.252,16.409-.722,9.923,1.547,3.116A2.5,2.5,0,0,1,3.125,1.532C9.7-.656,16.19-.317,23.41,1.387A38.585,38.585,0,0,1,41.841,11.664l5.392,5.392a2.5,2.5,0,0,1,0,3.529L36.478,31.34,42.738,37.6,46.6,33.736c.975-.975,3.353-.176,4.328.8s1.773,3.353.8,4.328l-2.563,2.563,3.7,3.7h0L68.743,61C72.644,64.9,75.84,68.026,71.938,71.928Z" transform="translate(79.144 55.152)" fill="#fff"/>
  </g>
</svg>
