<svg xmlns="http://www.w3.org/2000/svg" width="121" height="120" viewBox="0 0 121 120">
  <g id="sap_protect" transform="translate(-62.512 -33)">
    <ellipse id="Ellipse_6" data-name="Ellipse 6" cx="60.5" cy="60" rx="60.5" ry="60" transform="translate(62.512 33)" fill="#ec5252"/>
    <g id="Path_26" data-name="Path 26" transform="translate(93.048 56.395)">
      <path id="Path_51" data-name="Path 51" d="M29.75,70.874A85.046,85.046,0,0,1,21.7,64.911C14.907,59.2,10.579,53.525,9.186,48.5A132.473,132.473,0,0,1,5.128,19.381c-.125-3.057-.163-5.814-.159-8.094a47.863,47.863,0,0,0,9.332.835h.174A25.355,25.355,0,0,0,29.008,7.6q.484-.338.922-.675.381.3.8.6a24.254,24.254,0,0,0,14.29,4.507h.075a49.233,49.233,0,0,0,9.856-.945c-.011,2.176-.062,4.79-.195,7.693C54.407,26.4,53.416,37.636,50.669,47.9c-1.328,4.966-5.692,10.73-12.619,16.67A91.629,91.629,0,0,1,29.75,70.874Z" fill="#fff"/>
      <path id="Path_52" data-name="Path 52" d="M29.7,64.828c6.367-4.667,14.471-12,16.135-18.217,2.727-10.189,3.685-21.473,3.986-29.767-1.486.118-3.087.188-4.807.192a29.025,29.025,0,0,1-15.131-4.072A30.528,30.528,0,0,1,14.3,17.121c-1.514,0-2.932-.052-4.257-.145C10.288,25.461,11.2,37.054,14,47.167c1.689,6.084,9.209,13.024,15.7,17.661M29.8,76.791S8.464,64.6,4.368,49.842C-1.278,29.508.121,4.342.121,4.342s3.89,2.808,14.34,2.779A19.622,19.622,0,0,0,29.991-.09,18.434,18.434,0,0,0,45.08,7.036c10.319-.029,14.759-2.86,14.759-2.86S61.062,28.4,55.5,49.2C51.588,63.814,29.8,76.791,29.8,76.791Z" fill="#fff"/>
    </g>
  </g>
</svg>
